<svg xmlns="http://www.w3.org/2000/svg" xmlns:xlink="http://www.w3.org/1999/xlink" width="763" zoomAndPan="magnify" viewBox="0 0 572.25 481.499999" height="642" preserveAspectRatio="xMidYMid meet" version="1.0"><defs><g/></defs><g fill="#ffde59" fill-opacity="1"><g transform="translate(16.976863, 265.683968)"><g><path d="M 8.21875 -14.0625 C 8.03125 -14.269531 7.867188 -13.625 7.734375 -12.125 C 7.609375 -10.632812 7.546875 -8.695312 7.546875 -6.3125 C 7.546875 -3.925781 7.582031 -1.503906 7.65625 0.953125 C 7.726562 3.421875 7.867188 5.472656 8.078125 7.109375 C 8.285156 8.753906 8.539062 9.578125 8.84375 9.578125 C 9.050781 9.203125 9.164062 7.925781 9.1875 5.75 C 9.21875 3.570312 9.191406 1.070312 9.109375 -1.75 C 9.023438 -4.570312 8.90625 -7.160156 8.75 -9.515625 C 8.601562 -11.867188 8.425781 -13.382812 8.21875 -14.0625 Z M 15 -9.75 C 14.90625 -7.632812 14.800781 -5.503906 14.6875 -3.359375 C 14.550781 0.273438 14.378906 3.910156 14.171875 7.546875 C 13.910156 11.867188 13.570312 16.1875 13.15625 20.5 C 13.007812 21.6875 12.75 22.835938 12.375 23.953125 C 11.863281 25.847656 10.710938 26.796875 8.921875 26.796875 C 7.023438 26.859375 5.820312 25.957031 5.3125 24.09375 C 4.894531 22.207031 4.582031 20.285156 4.375 18.328125 C 3.300781 6.640625 2.691406 -5.078125 2.546875 -16.828125 C 2.484375 -20.710938 2.484375 -24.582031 2.546875 -28.4375 C 2.597656 -30.28125 3.566406 -31.128906 5.453125 -30.984375 C 6.898438 -30.941406 7.644531 -30.195312 7.6875 -28.75 C 7.738281 -27.164062 7.765625 -25.546875 7.765625 -23.890625 C 7.765625 -22.722656 7.785156 -21.519531 7.828125 -20.28125 C 7.828125 -19.863281 7.910156 -19.429688 8.078125 -18.984375 C 8.128906 -18.828125 8.15625 -18.703125 8.15625 -18.609375 C 8.15625 -18.535156 8.179688 -18.5 8.234375 -18.5 C 8.296875 -18.5 8.347656 -18.5 8.390625 -18.5 C 8.441406 -18.5 8.488281 -18.5 8.53125 -18.5 C 8.582031 -18.5 8.644531 -18.515625 8.71875 -18.546875 C 8.800781 -18.585938 8.867188 -18.628906 8.921875 -18.671875 C 8.921875 -18.816406 8.941406 -18.945312 8.984375 -19.0625 C 9.148438 -19.53125 9.253906 -19.960938 9.296875 -20.359375 C 9.421875 -23.335938 9.484375 -26.304688 9.484375 -29.265625 C 9.484375 -31.484375 9.503906 -33.703125 9.546875 -35.921875 C 9.597656 -42.328125 9.597656 -48.757812 9.546875 -55.21875 C 9.503906 -59.320312 9.375 -63.453125 9.15625 -67.609375 C 9.039062 -69.398438 8.960938 -71.21875 8.921875 -73.0625 C 8.921875 -73.4375 8.894531 -73.796875 8.84375 -74.140625 C 8.800781 -74.816406 8.78125 -75.484375 8.78125 -76.140625 C 8.875 -78.441406 10.003906 -79.421875 12.171875 -79.078125 C 13.335938 -78.867188 14.023438 -78.164062 14.234375 -76.96875 C 14.273438 -76.414062 14.359375 -75.859375 14.484375 -75.296875 C 14.671875 -73.804688 14.820312 -72.289062 14.9375 -70.75 C 15.144531 -64.382812 15.25 -57.992188 15.25 -51.578125 C 15.25 -45.335938 15.210938 -39.09375 15.140625 -32.84375 C 15.140625 -30.019531 15.117188 -27.195312 15.078125 -24.375 C 15.078125 -24.164062 15.078125 -23.957031 15.078125 -23.75 C 15.078125 -22.769531 15.078125 -21.789062 15.078125 -20.8125 C 15.117188 -19.988281 15.296875 -19.4375 15.609375 -19.15625 C 15.929688 -18.882812 16.5 -18.796875 17.3125 -18.890625 C 28.289062 -19.722656 38.722656 -22.519531 48.609375 -27.28125 C 54.160156 -29.957031 59.160156 -33.421875 63.609375 -37.671875 C 66.953125 -40.910156 69.429688 -44.179688 71.046875 -47.484375 C 72.671875 -50.796875 73.617188 -53.972656 73.890625 -57.015625 C 74.171875 -60.066406 74.007812 -62.910156 73.40625 -65.546875 C 72.332031 -70.046875 69.9375 -73.9375 66.21875 -77.21875 C 62.5 -80.507812 57.863281 -83.0625 52.3125 -84.875 C 46.769531 -86.695312 40.726562 -87.648438 34.1875 -87.734375 C 27.644531 -87.816406 21.039062 -86.925781 14.375 -85.0625 C 9.363281 -83.675781 4.550781 -81.75 -0.0625 -79.28125 C -2.675781 -77.90625 -5.09375 -76.191406 -7.3125 -74.140625 C -8.332031 -73.210938 -9.203125 -72.210938 -9.921875 -71.140625 C -10.648438 -70.066406 -10.976562 -68.78125 -10.90625 -67.28125 C -10.90625 -66.769531 -11.085938 -66.382812 -11.453125 -66.125 C -11.816406 -65.875 -12.253906 -65.722656 -12.765625 -65.671875 C -13.328125 -65.628906 -13.921875 -65.65625 -14.546875 -65.75 C -15.671875 -66.007812 -16.3125 -66.734375 -16.46875 -67.921875 C -16.519531 -69.085938 -16.265625 -70.238281 -15.703125 -71.375 C -14.816406 -73.125 -13.660156 -74.664062 -12.234375 -76 C -10.578125 -77.625 -8.785156 -79.054688 -6.859375 -80.296875 C -4.941406 -81.535156 -2.9375 -82.644531 -0.84375 -83.625 C 7.71875 -87.601562 16.71875 -90.0625 26.15625 -91 C 30.164062 -91.394531 34.503906 -91.453125 39.171875 -91.171875 C 43.835938 -90.890625 48.488281 -90.171875 53.125 -89.015625 C 57.757812 -87.867188 62.066406 -86.191406 66.046875 -83.984375 C 70.023438 -81.785156 73.320312 -78.941406 75.9375 -75.453125 C 78.5625 -71.960938 80.175781 -67.785156 80.78125 -62.921875 C 81.09375 -59.796875 80.890625 -56.769531 80.171875 -53.84375 C 79.460938 -50.914062 78.363281 -48.066406 76.875 -45.296875 C 74.050781 -40.328125 70.378906 -36.070312 65.859375 -32.53125 C 61.609375 -29.144531 57.082031 -26.304688 52.28125 -24.015625 C 47.476562 -21.734375 42.46875 -19.875 37.25 -18.4375 C 32.375 -17.101562 27.421875 -16.179688 22.390625 -15.671875 C 22.078125 -15.671875 21.769531 -15.644531 21.46875 -15.59375 C 21.425781 -15.550781 21.347656 -15.53125 21.234375 -15.53125 C 21.015625 -15.53125 20.84375 -15.488281 20.71875 -15.40625 C 20.59375 -15.320312 20.503906 -15.175781 20.453125 -14.96875 C 20.359375 -14.5 20.570312 -14.195312 21.09375 -14.0625 C 21.550781 -13.851562 22.003906 -13.664062 22.453125 -13.5 C 22.828125 -13.363281 23.210938 -13.210938 23.609375 -13.046875 C 31.628906 -10.015625 39.441406 -6.550781 47.046875 -2.65625 C 54.660156 1.238281 62.109375 5.410156 69.390625 9.859375 C 70.316406 10.367188 71.164062 10.988281 71.9375 11.71875 C 72.101562 11.832031 72.207031 12 72.25 12.21875 C 72.300781 12.445312 72.328125 12.664062 72.328125 12.875 C 72.273438 13.25 72.144531 13.519531 71.9375 13.6875 C 71.726562 13.863281 71.472656 14 71.171875 14.09375 C 69.929688 14.414062 68.800781 14.21875 67.78125 13.5 C 64.820312 11.914062 61.828125 10.351562 58.796875 8.8125 C 55.503906 7.019531 52.191406 5.25 48.859375 3.5 C 43.984375 0.882812 39.03125 -1.539062 34 -3.78125 C 28.976562 -6.019531 23.90625 -8.164062 18.78125 -10.21875 C 18.613281 -10.257812 18.460938 -10.328125 18.328125 -10.421875 C 17.859375 -10.628906 17.378906 -10.804688 16.890625 -10.953125 C 16.398438 -11.109375 15.972656 -11.109375 15.609375 -10.953125 C 15.253906 -10.804688 15.050781 -10.40625 15 -9.75 Z M 15 -9.75 "/></g></g></g><g fill="#ffde59" fill-opacity="1"><g transform="translate(87.903883, 265.683968)"><g><path d="M 32.03125 -17.59375 C 32.289062 -17.539062 32.46875 -17.460938 32.5625 -17.359375 C 32.65625 -17.253906 32.757812 -17.050781 32.875 -16.75 C 32.96875 -16.445312 32.863281 -16.082031 32.5625 -15.65625 C 32.257812 -15.238281 31.976562 -14.90625 31.71875 -14.65625 C 29.8125 -12.851562 27.570312 -11.78125 25 -11.4375 C 23.53125 -11.226562 22.0625 -11.175781 20.59375 -11.28125 C 19.125 -11.382812 17.679688 -11.738281 16.265625 -12.34375 C 15.234375 -12.851562 14.273438 -12.703125 13.390625 -11.890625 C 11.546875 -10.210938 9.625 -8.601562 7.625 -7.0625 C 6.59375 -6.289062 5.507812 -5.648438 4.375 -5.140625 C 3.25 -4.628906 2.023438 -4.335938 0.703125 -4.265625 C -3.191406 -4.335938 -4.734375 -6.238281 -3.921875 -9.96875 C -3.867188 -10.132812 -3.804688 -10.265625 -3.734375 -10.359375 C -2.617188 -13.390625 -1.140625 -16.117188 0.703125 -18.546875 C 2.546875 -20.984375 4.875 -23.019531 7.6875 -24.65625 C 9.550781 -25.75 11.554688 -26.171875 13.703125 -25.921875 C 14.265625 -25.796875 14.800781 -25.582031 15.3125 -25.28125 C 15.945312 -24.976562 16.207031 -24.488281 16.09375 -23.8125 C 16.039062 -23.601562 15.9375 -23.421875 15.78125 -23.265625 C 15.632812 -23.117188 15.476562 -22.976562 15.3125 -22.84375 C 15.21875 -22.71875 15.09375 -22.628906 14.9375 -22.578125 C 14.789062 -22.535156 14.640625 -22.515625 14.484375 -22.515625 C 12.941406 -22.472656 11.613281 -22.023438 10.5 -21.171875 C 9.394531 -20.328125 8.390625 -19.367188 7.484375 -18.296875 C 6.460938 -17.148438 5.515625 -15.890625 4.640625 -14.515625 C 3.765625 -13.140625 3.046875 -11.492188 2.484375 -9.578125 C 4.535156 -10.765625 6.144531 -11.941406 7.3125 -13.109375 C 7.5625 -13.367188 7.816406 -13.601562 8.078125 -13.8125 C 8.285156 -14.019531 8.492188 -14.207031 8.703125 -14.375 C 9.734375 -15.332031 10.804688 -16.171875 11.921875 -16.890625 C 13.203125 -17.609375 14.472656 -17.96875 15.734375 -17.96875 C 16.992188 -17.96875 18.21875 -17.457031 19.40625 -16.4375 C 21.039062 -14.988281 22.625 -14.421875 24.15625 -14.734375 C 25.695312 -15.054688 27.132812 -15.601562 28.46875 -16.375 C 29.820312 -17.1875 31.007812 -17.59375 32.03125 -17.59375 Z M 32.03125 -17.59375 "/></g></g></g><g fill="#ffde59" fill-opacity="1"><g transform="translate(117.526756, 265.683968)"><g><path d="M 37.390625 -17.734375 C 37.847656 -17.640625 38.164062 -17.359375 38.34375 -16.890625 C 38.519531 -16.421875 38.457031 -16.015625 38.15625 -15.671875 C 36.0625 -13.453125 33.773438 -11.316406 31.296875 -9.265625 C 28.992188 -7.285156 26.710938 -5.1875 24.453125 -2.96875 C 23.117188 -1.519531 22.347656 0.164062 22.140625 2.09375 C 22.085938 2.394531 22.0625 2.710938 22.0625 3.046875 C 21.507812 8.054688 20.757812 13.5 19.8125 19.375 C 18.863281 25.25 17.460938 30.921875 15.609375 36.390625 C 13.753906 41.859375 11.242188 46.476562 8.078125 50.25 C 7.054688 51.445312 5.898438 52.351562 4.609375 52.96875 C 3.328125 53.582031 1.859375 53.832031 0.203125 53.71875 C -3.316406 53.363281 -5.617188 52.046875 -6.703125 49.765625 C -7.785156 47.484375 -7.960938 44.578125 -7.234375 41.046875 C -6.515625 37.515625 -5.242188 33.71875 -3.421875 29.65625 C -1.609375 25.601562 0.425781 21.648438 2.6875 17.796875 C 4.945312 13.953125 7.070312 10.578125 9.0625 7.671875 C 11.0625 4.773438 12.632812 2.6875 13.78125 1.40625 C 15.570312 -0.53125 16.515625 -2.757812 16.609375 -5.28125 C 16.703125 -6.300781 16.785156 -7.328125 16.859375 -8.359375 C 17.046875 -10.203125 17.171875 -12.253906 17.234375 -14.515625 C 16.515625 -14.003906 15.875 -13.570312 15.3125 -13.21875 C 14.382812 -12.539062 13.535156 -11.96875 12.765625 -11.5 C 10.503906 -10.175781 8.066406 -9.796875 5.453125 -10.359375 C 3.492188 -10.910156 2.09375 -12.019531 1.25 -13.6875 C 0.414062 -15.351562 0.0078125 -17.210938 0.03125 -19.265625 C 0.0507812 -21.316406 0.425781 -23.148438 1.15625 -24.765625 C 1.625 -25.785156 2.378906 -26.4375 3.421875 -26.71875 C 4.472656 -27 5.488281 -26.859375 6.46875 -26.296875 C 6.613281 -26.179688 6.75 -26.003906 6.875 -25.765625 C 7 -25.535156 7.039062 -25.328125 7 -25.140625 C 6.945312 -24.628906 6.816406 -24.117188 6.609375 -23.609375 C 6.515625 -23.285156 6.429688 -22.945312 6.359375 -22.59375 C 5.804688 -20.238281 5.972656 -17.90625 6.859375 -15.59375 C 7.410156 -14.15625 8.332031 -13.925781 9.625 -14.90625 C 11.757812 -16.738281 13.578125 -18.867188 15.078125 -21.296875 C 15.535156 -21.992188 15.941406 -22.707031 16.296875 -23.4375 C 16.503906 -23.738281 16.691406 -24.050781 16.859375 -24.375 C 17.878906 -25.914062 19.289062 -26.582031 21.09375 -26.375 C 23.070312 -26.25 24.0625 -25.222656 24.0625 -23.296875 C 24.007812 -20.609375 23.914062 -17.960938 23.78125 -15.359375 C 23.707031 -14.117188 23.648438 -12.894531 23.609375 -11.6875 C 23.515625 -10.65625 23.609375 -10.035156 23.890625 -9.828125 C 24.171875 -9.617188 24.738281 -9.875 25.59375 -10.59375 C 26.175781 -11.0625 26.75 -11.515625 27.3125 -11.953125 C 29.320312 -13.566406 31.289062 -15.164062 33.21875 -16.75 C 34.5 -17.78125 35.890625 -18.109375 37.390625 -17.734375 Z M 3.140625 47.671875 C 5.148438 45.203125 7.007812 41.59375 8.71875 36.84375 C 10.4375 32.101562 11.847656 27.191406 12.953125 22.109375 C 14.066406 17.023438 14.671875 12.769531 14.765625 9.34375 C 13.941406 9.5 12.976562 10.429688 11.875 12.140625 C 10.769531 13.859375 9.601562 16.039062 8.375 18.6875 C 7.15625 21.332031 5.945312 24.09375 4.75 26.96875 C 4.539062 27.476562 4.101562 28.78125 3.4375 30.875 C 2.78125 32.976562 2.109375 35.351562 1.421875 38 C 0.734375 40.644531 0.222656 43.046875 -0.109375 45.203125 C -0.453125 47.359375 -0.40625 48.769531 0.03125 49.4375 C 0.476562 50.101562 1.515625 49.515625 3.140625 47.671875 Z M 3.140625 47.671875 "/></g></g></g><g fill="#ffde59" fill-opacity="1"><g transform="translate(151.451416, 265.683968)"><g><path d="M 30 -16.5 C 31.382812 -17.570312 32.375 -17.90625 32.96875 -17.5 C 33.5625 -17.09375 33.445312 -16.097656 32.625 -14.515625 C 31.09375 -12.160156 28.863281 -10.648438 25.9375 -9.984375 C 23.007812 -9.316406 20.367188 -9.671875 18.015625 -11.046875 C 17.191406 -11.566406 16.625 -11.800781 16.3125 -11.75 C 16 -11.707031 15.828125 -11.460938 15.796875 -11.015625 C 15.773438 -10.578125 15.8125 -10.050781 15.90625 -9.4375 C 15.90625 -9.320312 15.941406 -9.195312 16.015625 -9.0625 C 16.273438 -6.707031 16.476562 -4.023438 16.625 -1.015625 C 16.78125 1.992188 16.71875 4.972656 16.4375 7.921875 C 16.15625 10.867188 15.550781 13.441406 14.625 15.640625 C 13.894531 17.171875 12.8125 18.191406 11.375 18.703125 C 9.945312 19.222656 8.523438 19.253906 7.109375 18.796875 C 5.703125 18.335938 4.59375 17.410156 3.78125 16.015625 C 3.050781 14.691406 2.476562 13.316406 2.0625 11.890625 C 1.289062 8.953125 0.726562 5.972656 0.375 2.953125 C 0.03125 -0.0664062 -0.195312 -3.113281 -0.3125 -6.1875 C -0.519531 -12.925781 -0.210938 -20.816406 0.609375 -29.859375 C 1.441406 -38.910156 2.710938 -47.890625 4.421875 -56.796875 C 6.140625 -65.703125 8.234375 -73.28125 10.703125 -79.53125 C 11.472656 -81.226562 12.78125 -81.914062 14.625 -81.59375 C 15.90625 -81.40625 16.519531 -80.71875 16.46875 -79.53125 C 15.75 -76.5 14.984375 -73.375 14.171875 -70.15625 C 12.421875 -63.488281 10.773438 -56.46875 9.234375 -49.09375 C 7.691406 -41.726562 6.664062 -34.09375 6.15625 -26.1875 C 5.800781 -21.0625 5.632812 -15.929688 5.65625 -10.796875 C 5.6875 -5.671875 6.0625 -0.578125 6.78125 4.484375 C 6.832031 5.316406 6.941406 6.359375 7.109375 7.609375 C 7.285156 8.859375 7.515625 10.046875 7.796875 11.171875 C 8.078125 12.304688 8.363281 13.117188 8.65625 13.609375 C 8.945312 14.097656 9.234375 14.007812 9.515625 13.34375 C 9.796875 12.675781 10.039062 11.164062 10.25 8.8125 C 10.34375 5.738281 10.375 2.632812 10.34375 -0.5 C 10.320312 -3.644531 10.101562 -6.773438 9.6875 -9.890625 C 9.550781 -11.265625 9.398438 -12.675781 9.234375 -14.125 C 9.066406 -15.5 8.890625 -16.890625 8.703125 -18.296875 C 8.585938 -19.015625 8.59375 -19.664062 8.71875 -20.25 C 8.851562 -20.832031 9.28125 -21.332031 10 -21.75 C 11.75 -22.476562 13.265625 -22.242188 14.546875 -21.046875 C 14.847656 -20.796875 15.101562 -20.492188 15.3125 -20.140625 C 15.3125 -20.078125 15.335938 -20.019531 15.390625 -19.96875 C 17.597656 -16.800781 19.835938 -14.832031 22.109375 -14.0625 C 24.390625 -13.289062 27.019531 -14.101562 30 -16.5 Z M 30 -16.5 "/></g></g></g><g fill="#ffde59" fill-opacity="1"><g transform="translate(181.598897, 265.683968)"><g><path d="M 31.09375 -16.5 C 31.957031 -17.394531 32.71875 -17.75 33.375 -17.5625 C 34.039062 -17.375 34.457031 -16.882812 34.625 -16.09375 C 34.789062 -15.300781 34.554688 -14.414062 33.921875 -13.4375 C 32.640625 -11.539062 30.832031 -9.503906 28.5 -7.328125 C 26.164062 -5.148438 23.648438 -3.25 20.953125 -1.625 C 18.265625 -0.0078125 15.722656 0.867188 13.328125 1.015625 C 8.453125 1.273438 6.164062 -1.054688 6.46875 -5.984375 C 6.519531 -6.628906 6.648438 -7.503906 6.859375 -8.609375 C 7.066406 -9.679688 7.234375 -10.71875 7.359375 -11.71875 C 7.484375 -12.71875 7.421875 -13.394531 7.171875 -13.75 C 6.847656 -14.050781 6.476562 -14.203125 6.0625 -14.203125 C 5.65625 -14.203125 5.21875 -14.15625 4.75 -14.0625 C 4.238281 -13.945312 3.765625 -13.921875 3.328125 -13.984375 C 0.941406 -14.242188 -0.296875 -15.46875 -0.390625 -17.65625 C -0.429688 -20.6875 0.128906 -23.59375 1.296875 -26.375 C 1.671875 -27.226562 2.367188 -27.796875 3.390625 -28.078125 C 4.421875 -28.359375 5.363281 -28.242188 6.21875 -27.734375 C 6.78125 -27.378906 7.039062 -26.898438 7 -26.296875 C 6.90625 -25.460938 6.753906 -24.632812 6.546875 -23.8125 C 6.453125 -23.46875 6.367188 -23.109375 6.296875 -22.734375 C 5.847656 -20.585938 5.851562 -19.472656 6.3125 -19.390625 C 6.769531 -19.304688 7.765625 -19.882812 9.296875 -21.125 C 10.441406 -21.9375 11.703125 -22.273438 13.078125 -22.140625 C 14.921875 -21.972656 15.664062 -20.945312 15.3125 -19.0625 C 15.007812 -17.78125 14.695312 -16.472656 14.375 -15.140625 C 13.675781 -12.410156 13.140625 -9.660156 12.765625 -6.890625 C 12.628906 -5.003906 12.96875 -3.898438 13.78125 -3.578125 C 14.59375 -3.265625 15.679688 -3.457031 17.046875 -4.15625 C 18.410156 -4.863281 19.84375 -5.804688 21.34375 -6.984375 C 22.851562 -8.160156 24.179688 -9.3125 25.328125 -10.4375 C 26.484375 -11.570312 27.273438 -12.394531 27.703125 -12.90625 C 27.910156 -13.164062 28.226562 -13.519531 28.65625 -13.96875 C 29.09375 -14.425781 29.539062 -14.890625 30 -15.359375 C 30.519531 -15.867188 30.882812 -16.25 31.09375 -16.5 Z M 31.09375 -16.5 "/></g></g></g><g fill="#ffde59" fill-opacity="1"><g transform="translate(211.781352, 265.683968)"><g><path d="M 32.03125 -17.59375 C 32.289062 -17.539062 32.46875 -17.460938 32.5625 -17.359375 C 32.65625 -17.253906 32.757812 -17.050781 32.875 -16.75 C 32.96875 -16.445312 32.863281 -16.082031 32.5625 -15.65625 C 32.257812 -15.238281 31.976562 -14.90625 31.71875 -14.65625 C 29.8125 -12.851562 27.570312 -11.78125 25 -11.4375 C 23.53125 -11.226562 22.0625 -11.175781 20.59375 -11.28125 C 19.125 -11.382812 17.679688 -11.738281 16.265625 -12.34375 C 15.234375 -12.851562 14.273438 -12.703125 13.390625 -11.890625 C 11.546875 -10.210938 9.625 -8.601562 7.625 -7.0625 C 6.59375 -6.289062 5.507812 -5.648438 4.375 -5.140625 C 3.25 -4.628906 2.023438 -4.335938 0.703125 -4.265625 C -3.191406 -4.335938 -4.734375 -6.238281 -3.921875 -9.96875 C -3.867188 -10.132812 -3.804688 -10.265625 -3.734375 -10.359375 C -2.617188 -13.390625 -1.140625 -16.117188 0.703125 -18.546875 C 2.546875 -20.984375 4.875 -23.019531 7.6875 -24.65625 C 9.550781 -25.75 11.554688 -26.171875 13.703125 -25.921875 C 14.265625 -25.796875 14.800781 -25.582031 15.3125 -25.28125 C 15.945312 -24.976562 16.207031 -24.488281 16.09375 -23.8125 C 16.039062 -23.601562 15.9375 -23.421875 15.78125 -23.265625 C 15.632812 -23.117188 15.476562 -22.976562 15.3125 -22.84375 C 15.21875 -22.71875 15.09375 -22.628906 14.9375 -22.578125 C 14.789062 -22.535156 14.640625 -22.515625 14.484375 -22.515625 C 12.941406 -22.472656 11.613281 -22.023438 10.5 -21.171875 C 9.394531 -20.328125 8.390625 -19.367188 7.484375 -18.296875 C 6.460938 -17.148438 5.515625 -15.890625 4.640625 -14.515625 C 3.765625 -13.140625 3.046875 -11.492188 2.484375 -9.578125 C 4.535156 -10.765625 6.144531 -11.941406 7.3125 -13.109375 C 7.5625 -13.367188 7.816406 -13.601562 8.078125 -13.8125 C 8.285156 -14.019531 8.492188 -14.207031 8.703125 -14.375 C 9.734375 -15.332031 10.804688 -16.171875 11.921875 -16.890625 C 13.203125 -17.609375 14.472656 -17.96875 15.734375 -17.96875 C 16.992188 -17.96875 18.21875 -17.457031 19.40625 -16.4375 C 21.039062 -14.988281 22.625 -14.421875 24.15625 -14.734375 C 25.695312 -15.054688 27.132812 -15.601562 28.46875 -16.375 C 29.820312 -17.1875 31.007812 -17.59375 32.03125 -17.59375 Z M 32.03125 -17.59375 "/></g></g></g><g fill="#ffde59" fill-opacity="1"><g transform="translate(241.404215, 265.683968)"><g><path d="M 46.171875 -16.4375 C 46.171875 -16.4375 46.191406 -16.4375 46.234375 -16.4375 C 46.492188 -16.394531 46.75 -16.304688 47 -16.171875 C 47.257812 -16.046875 47.425781 -15.796875 47.5 -15.421875 C 47.632812 -14.765625 47.445312 -14.253906 46.9375 -13.890625 C 44.832031 -12.421875 42.582031 -11.265625 40.1875 -10.421875 C 38.019531 -9.722656 35.832031 -9.28125 33.625 -9.09375 C 31.425781 -8.90625 29.191406 -8.914062 26.921875 -9.125 C 24.015625 -9.425781 21.660156 -10.816406 19.859375 -13.296875 C 19.304688 -14.054688 18.738281 -14.820312 18.15625 -15.59375 C 17.59375 -16.363281 17.007812 -17.15625 16.40625 -17.96875 C 15.894531 -18.644531 15.253906 -18.726562 14.484375 -18.21875 C 13.546875 -17.539062 12.703125 -16.773438 11.953125 -15.921875 C 11.210938 -15.078125 10.515625 -14.203125 9.859375 -13.296875 C 9.816406 -13.171875 9.757812 -13.0625 9.6875 -12.96875 C 9.425781 -12.664062 9.171875 -12.328125 8.921875 -11.953125 C 8.617188 -11.398438 8.269531 -10.890625 7.875 -10.421875 C 7.195312 -9.648438 6.320312 -9.15625 5.25 -8.9375 C 4.175781 -8.71875 3.148438 -8.804688 2.171875 -9.203125 C 1.441406 -9.566406 0.972656 -10.101562 0.765625 -10.8125 C 0.117188 -13.445312 -0.285156 -16.09375 -0.453125 -18.75 C -0.453125 -20.1875 0.207031 -21.035156 1.53125 -21.296875 C 3.070312 -21.648438 4.179688 -21.160156 4.859375 -19.828125 C 4.953125 -19.617188 5.023438 -19.363281 5.078125 -19.0625 C 5.140625 -18.757812 5.234375 -18.460938 5.359375 -18.171875 C 5.492188 -17.878906 5.734375 -17.640625 6.078125 -17.453125 C 6.503906 -17.796875 6.890625 -18.125 7.234375 -18.4375 C 8.054688 -19.15625 8.851562 -19.851562 9.625 -20.53125 C 10.550781 -21.300781 11.523438 -21.847656 12.546875 -22.171875 C 13.578125 -22.492188 14.675781 -22.65625 15.84375 -22.65625 C 18.570312 -22.65625 20.726562 -21.582031 22.3125 -19.4375 C 22.613281 -18.976562 22.925781 -18.535156 23.25 -18.109375 C 23.957031 -17.035156 24.691406 -16.007812 25.453125 -15.03125 C 26.691406 -13.445312 28.335938 -12.632812 30.390625 -12.59375 C 32.492188 -12.5 34.503906 -12.691406 36.421875 -13.171875 C 38.347656 -13.648438 40.207031 -14.378906 42 -15.359375 C 42.070312 -15.398438 42.15625 -15.457031 42.25 -15.53125 C 42.851562 -15.875 43.472656 -16.148438 44.109375 -16.359375 C 44.753906 -16.578125 45.441406 -16.601562 46.171875 -16.4375 Z M 46.171875 -16.4375 "/></g></g></g><g fill="#ffde59" fill-opacity="1"><g transform="translate(284.561978, 265.683968)"><g/></g></g><g fill="#ffde59" fill-opacity="1"><g transform="translate(312.226303, 265.683968)"><g><path d="M 97.578125 -17.515625 C 97.921875 -17.054688 97.910156 -16.441406 97.546875 -15.671875 C 97.191406 -14.898438 95.769531 -13.957031 93.28125 -12.84375 C 90.800781 -11.738281 87.96875 -10.753906 84.78125 -9.890625 C 84.21875 -9.796875 83.632812 -9.691406 83.03125 -9.578125 C 81.84375 -9.441406 81.203125 -8.78125 81.109375 -7.59375 C 80.796875 -5.070312 80.382812 -2.585938 79.875 -0.140625 C 77.96875 8.648438 74.085938 16.445312 68.234375 23.25 C 61.773438 30.6875 54.148438 36.585938 45.359375 40.953125 C 36.566406 45.316406 27.269531 47.894531 17.46875 48.6875 C 7.664062 49.476562 -1.921875 48.332031 -11.296875 45.25 C -16.023438 43.71875 -20.382812 41.515625 -24.375 38.640625 C -26.632812 37.054688 -28.554688 35.191406 -30.140625 33.046875 C -33.296875 28.566406 -33.507812 23.953125 -30.78125 19.203125 C -29.03125 16.210938 -26.488281 13.585938 -23.15625 11.328125 C -19.820312 9.066406 -16.078125 7.117188 -11.921875 5.484375 C -7.773438 3.859375 -3.578125 2.46875 0.671875 1.3125 C 4.929688 0.15625 8.894531 -0.863281 12.5625 -1.75 C 13.675781 -2.050781 14.769531 -2.332031 15.84375 -2.59375 C 16.988281 -2.894531 17.582031 -3.640625 17.625 -4.828125 C 17.625 -5.085938 17.648438 -5.34375 17.703125 -5.59375 C 17.703125 -5.945312 17.703125 -6.273438 17.703125 -6.578125 C 17.742188 -7.554688 17.789062 -8.535156 17.84375 -9.515625 C 18.207031 -19.046875 18.519531 -28.597656 18.78125 -38.171875 C 19.039062 -47.742188 19.039062 -57.296875 18.78125 -66.828125 C 18.726562 -68.671875 18.597656 -70.515625 18.390625 -72.359375 C 18.273438 -73.335938 18.171875 -74.316406 18.078125 -75.296875 C 17.921875 -76.878906 18.4375 -77.820312 19.625 -78.125 C 21.675781 -78.59375 22.976562 -77.953125 23.53125 -76.203125 C 23.90625 -74.785156 24.140625 -73.328125 24.234375 -71.828125 C 24.796875 -65.765625 25.050781 -59.691406 25 -53.609375 C 25 -53.097656 25.023438 -52.585938 25.078125 -52.078125 C 25.078125 -51.867188 25.078125 -51.679688 25.078125 -51.515625 C 25.378906 -51.304688 25.644531 -51.226562 25.875 -51.28125 C 26.113281 -51.34375 26.3125 -51.441406 26.46875 -51.578125 C 30.019531 -55.128906 33.429688 -58.765625 36.703125 -62.484375 C 39.984375 -66.203125 43.03125 -70.171875 45.84375 -74.390625 C 48.195312 -77.816406 50.019531 -81.535156 51.3125 -85.546875 C 51.769531 -87.265625 52 -89.023438 52 -90.828125 C 51.90625 -94.109375 50.769531 -96.453125 48.59375 -97.859375 C 46.414062 -99.273438 43.644531 -100.023438 40.28125 -100.109375 C 36.925781 -100.191406 33.398438 -99.847656 29.703125 -99.078125 C 26.015625 -98.304688 22.601562 -97.367188 19.46875 -96.265625 C 16.332031 -95.160156 13.921875 -94.148438 12.234375 -93.234375 C 10.066406 -92.097656 8.125 -90.710938 6.40625 -89.078125 C 6.332031 -89.023438 6.269531 -88.96875 6.21875 -88.90625 C 5.664062 -88.457031 5.238281 -87.945312 4.9375 -87.375 C 4.632812 -86.8125 4.679688 -86.117188 5.078125 -85.296875 C 5.191406 -84.992188 5.128906 -84.722656 4.890625 -84.484375 C 4.660156 -84.253906 4.414062 -84.09375 4.15625 -84 C 3.4375 -83.75 2.691406 -83.625 1.921875 -83.625 C 0.640625 -83.507812 -0.382812 -83.988281 -1.15625 -85.0625 C -1.5 -85.632812 -1.582031 -86.1875 -1.40625 -86.71875 C -1.238281 -87.257812 -0.976562 -87.765625 -0.625 -88.234375 C -0.625 -88.285156 -0.59375 -88.3125 -0.53125 -88.3125 C 0.238281 -89.539062 1.148438 -90.613281 2.203125 -91.53125 C 3.253906 -92.457031 4.394531 -93.304688 5.625 -94.078125 C 11.007812 -97.617188 17.070312 -100.160156 23.8125 -101.703125 C 30.550781 -103.242188 37.128906 -103.753906 43.546875 -103.234375 C 46.273438 -102.984375 48.835938 -102.265625 51.234375 -101.078125 C 56.316406 -98.460938 58.519531 -94.3125 57.84375 -88.625 C 57.332031 -85.332031 56.34375 -82.21875 54.875 -79.28125 C 52.3125 -74.21875 49.195312 -69.507812 45.53125 -65.15625 C 40.988281 -59.601562 36.175781 -54.3125 31.09375 -49.28125 C 29.25 -47.4375 28.375 -46.332031 28.46875 -45.96875 C 28.5625 -45.613281 29.503906 -45.539062 31.296875 -45.75 C 31.671875 -45.75 32.09375 -45.769531 32.5625 -45.8125 C 36.550781 -46.070312 40.648438 -46.203125 44.859375 -46.203125 C 49.066406 -46.203125 53.144531 -45.789062 57.09375 -44.96875 C 61.039062 -44.15625 64.671875 -42.679688 67.984375 -40.546875 C 71.296875 -38.410156 74.070312 -35.328125 76.3125 -31.296875 C 78.738281 -26.773438 80.253906 -21.972656 80.859375 -16.890625 C 80.898438 -16.585938 80.921875 -16.285156 80.921875 -15.984375 C 81.085938 -14.535156 82.003906 -13.863281 83.671875 -13.96875 C 85.335938 -14.070312 87.300781 -14.484375 89.5625 -15.203125 C 91.820312 -15.929688 93.640625 -16.613281 95.015625 -17.25 C 96.390625 -17.894531 97.242188 -17.984375 97.578125 -17.515625 Z M 74.765625 -7.140625 C 74.835938 -7.484375 74.769531 -7.757812 74.5625 -7.96875 C 74.351562 -8.175781 74.070312 -8.28125 73.71875 -8.28125 C 71.757812 -8.070312 69.800781 -7.863281 67.84375 -7.65625 C 67.59375 -7.613281 67.335938 -7.566406 67.078125 -7.515625 C 57.753906 -6.328125 48.648438 -4.859375 39.765625 -3.109375 C 34.753906 -2.203125 29.660156 -1.34375 24.484375 -0.53125 C 23.035156 -0.269531 22.359375 0.554688 22.453125 1.953125 C 22.410156 2.566406 22.34375 3.148438 22.25 3.703125 C 22.03125 4.472656 21.515625 4.960938 20.703125 5.171875 C 19.816406 5.472656 18.941406 5.453125 18.078125 5.109375 C 17.660156 4.898438 17.40625 4.640625 17.3125 4.328125 C 17.21875 4.023438 17.132812 3.691406 17.0625 3.328125 C 17.0625 3.179688 17.039062 3.03125 17 2.875 C 16.90625 2.257812 16.738281 1.859375 16.5 1.671875 C 16.269531 1.492188 15.875 1.460938 15.3125 1.578125 C 13.351562 1.878906 10.734375 2.453125 7.453125 3.296875 C 4.179688 4.148438 0.632812 5.238281 -3.1875 6.5625 C -7.007812 7.894531 -10.679688 9.457031 -14.203125 11.25 C -17.722656 13.050781 -20.632812 15.066406 -22.9375 17.296875 C -25.25 19.523438 -26.554688 21.9375 -26.859375 24.53125 C -27.160156 27.132812 -26.03125 29.914062 -23.46875 32.875 C -21.25 35.34375 -18.660156 37.320312 -15.703125 38.8125 C -7.078125 43.175781 1.898438 45.335938 11.234375 45.296875 C 20.578125 45.265625 29.566406 43.351562 38.203125 39.5625 C 46.847656 35.78125 54.421875 30.425781 60.921875 23.5 C 67.398438 16.664062 71.691406 8.632812 73.796875 -0.59375 C 74.191406 -2.53125 74.492188 -4.523438 74.703125 -6.578125 C 74.703125 -6.785156 74.722656 -6.972656 74.765625 -7.140625 Z M 72.78125 -11.953125 C 73.707031 -12.078125 74.320312 -12.300781 74.625 -12.625 C 74.9375 -12.945312 75.046875 -13.578125 74.953125 -14.515625 C 74.648438 -18.828125 73.671875 -23.007812 72.015625 -27.0625 C 70.078125 -31.613281 67.503906 -35.0625 64.296875 -37.40625 C 61.085938 -39.75 57.476562 -41.285156 53.46875 -42.015625 C 49.457031 -42.753906 45.289062 -43.035156 40.96875 -42.859375 C 36.644531 -42.679688 32.394531 -42.359375 28.21875 -41.890625 C 27.613281 -41.847656 27.007812 -41.78125 26.40625 -41.6875 C 25.519531 -41.570312 24.957031 -41.222656 24.71875 -40.640625 C 24.488281 -40.054688 24.410156 -39.378906 24.484375 -38.609375 C 24.484375 -38.492188 24.484375 -38.410156 24.484375 -38.359375 C 24.316406 -29.734375 23.875 -20.675781 23.15625 -11.1875 C 23.15625 -11.09375 23.15625 -10.941406 23.15625 -10.734375 C 23.15625 -10.078125 23.15625 -9.203125 23.15625 -8.109375 C 23.007812 -6.179688 23.140625 -5.046875 23.546875 -4.703125 C 23.960938 -4.367188 25.113281 -4.429688 27 -4.890625 C 29.09375 -5.242188 31.164062 -5.628906 33.21875 -6.046875 C 39.75 -7.285156 46.328125 -8.359375 52.953125 -9.265625 C 59.546875 -10.148438 66.15625 -11.046875 72.78125 -11.953125 Z M 72.78125 -11.953125 "/></g></g></g><g fill="#ffde59" fill-opacity="1"><g transform="translate(407.704964, 265.683968)"><g><path d="M 32.03125 -17.59375 C 32.289062 -17.539062 32.46875 -17.460938 32.5625 -17.359375 C 32.65625 -17.253906 32.757812 -17.050781 32.875 -16.75 C 32.96875 -16.445312 32.863281 -16.082031 32.5625 -15.65625 C 32.257812 -15.238281 31.976562 -14.90625 31.71875 -14.65625 C 29.8125 -12.851562 27.570312 -11.78125 25 -11.4375 C 23.53125 -11.226562 22.0625 -11.175781 20.59375 -11.28125 C 19.125 -11.382812 17.679688 -11.738281 16.265625 -12.34375 C 15.234375 -12.851562 14.273438 -12.703125 13.390625 -11.890625 C 11.546875 -10.210938 9.625 -8.601562 7.625 -7.0625 C 6.59375 -6.289062 5.507812 -5.648438 4.375 -5.140625 C 3.25 -4.628906 2.023438 -4.335938 0.703125 -4.265625 C -3.191406 -4.335938 -4.734375 -6.238281 -3.921875 -9.96875 C -3.867188 -10.132812 -3.804688 -10.265625 -3.734375 -10.359375 C -2.617188 -13.390625 -1.140625 -16.117188 0.703125 -18.546875 C 2.546875 -20.984375 4.875 -23.019531 7.6875 -24.65625 C 9.550781 -25.75 11.554688 -26.171875 13.703125 -25.921875 C 14.265625 -25.796875 14.800781 -25.582031 15.3125 -25.28125 C 15.945312 -24.976562 16.207031 -24.488281 16.09375 -23.8125 C 16.039062 -23.601562 15.9375 -23.421875 15.78125 -23.265625 C 15.632812 -23.117188 15.476562 -22.976562 15.3125 -22.84375 C 15.21875 -22.71875 15.09375 -22.628906 14.9375 -22.578125 C 14.789062 -22.535156 14.640625 -22.515625 14.484375 -22.515625 C 12.941406 -22.472656 11.613281 -22.023438 10.5 -21.171875 C 9.394531 -20.328125 8.390625 -19.367188 7.484375 -18.296875 C 6.460938 -17.148438 5.515625 -15.890625 4.640625 -14.515625 C 3.765625 -13.140625 3.046875 -11.492188 2.484375 -9.578125 C 4.535156 -10.765625 6.144531 -11.941406 7.3125 -13.109375 C 7.5625 -13.367188 7.816406 -13.601562 8.078125 -13.8125 C 8.285156 -14.019531 8.492188 -14.207031 8.703125 -14.375 C 9.734375 -15.332031 10.804688 -16.171875 11.921875 -16.890625 C 13.203125 -17.609375 14.472656 -17.96875 15.734375 -17.96875 C 16.992188 -17.96875 18.21875 -17.457031 19.40625 -16.4375 C 21.039062 -14.988281 22.625 -14.421875 24.15625 -14.734375 C 25.695312 -15.054688 27.132812 -15.601562 28.46875 -16.375 C 29.820312 -17.1875 31.007812 -17.59375 32.03125 -17.59375 Z M 32.03125 -17.59375 "/></g></g></g><g fill="#ffde59" fill-opacity="1"><g transform="translate(437.327848, 265.683968)"><g><path d="M 27.703125 -17.28125 C 28.210938 -17.695312 28.59375 -17.835938 28.84375 -17.703125 C 29.101562 -17.578125 29.285156 -17.320312 29.390625 -16.9375 C 29.492188 -16.5625 29.546875 -16.1875 29.546875 -15.8125 C 29.503906 -15.113281 29.363281 -14.441406 29.125 -13.796875 C 28.894531 -13.148438 28.734375 -12.722656 28.640625 -12.515625 C 28.566406 -12.472656 28.53125 -12.453125 28.53125 -12.453125 C 27.832031 -10.648438 26.722656 -8.875 25.203125 -7.125 C 23.691406 -5.382812 21.910156 -3.976562 19.859375 -2.90625 C 17.804688 -1.832031 15.628906 -1.363281 13.328125 -1.5 C 10.085938 -1.875 7.503906 -3.117188 5.578125 -5.234375 C 3.648438 -7.359375 2.203125 -9.894531 1.234375 -12.84375 C 0.273438 -15.800781 -0.367188 -18.710938 -0.703125 -21.578125 C -1.566406 -28.660156 -1.820312 -35.796875 -1.46875 -42.984375 C -1.394531 -44.734375 -1.335938 -46.484375 -1.296875 -48.234375 C -1.296875 -48.835938 -1.296875 -49.441406 -1.296875 -50.046875 C -1.296875 -51.191406 -1.832031 -51.765625 -2.90625 -51.765625 C -4.039062 -51.765625 -5.171875 -51.785156 -6.296875 -51.828125 C -7.535156 -51.828125 -8.796875 -51.828125 -10.078125 -51.828125 C -10.234375 -51.828125 -10.40625 -51.828125 -10.59375 -51.828125 C -11.476562 -51.734375 -12.304688 -51.882812 -13.078125 -52.28125 C -13.429688 -52.445312 -13.722656 -52.671875 -13.953125 -52.953125 C -14.179688 -53.234375 -14.296875 -53.582031 -14.296875 -54 C -14.253906 -54.394531 -14.09375 -54.707031 -13.8125 -54.9375 C -13.53125 -55.175781 -13.179688 -55.296875 -12.765625 -55.296875 C -11.273438 -55.335938 -9.78125 -55.359375 -8.28125 -55.359375 C -7.375 -55.359375 -6.476562 -55.359375 -5.59375 -55.359375 C -4.425781 -55.359375 -3.25 -55.414062 -2.0625 -55.53125 C -1.40625 -55.582031 -1 -55.96875 -0.84375 -56.6875 C -0.75 -57.550781 -0.664062 -58.414062 -0.59375 -59.28125 C -0.40625 -62.101562 -0.207031 -64.925781 0 -67.75 C 0.164062 -69.707031 0.316406 -71.628906 0.453125 -73.515625 C 0.453125 -73.585938 0.453125 -73.644531 0.453125 -73.6875 C 0.453125 -74.082031 0.488281 -74.46875 0.5625 -74.84375 C 0.957031 -76.476562 2.050781 -77.25 3.84375 -77.15625 C 5.382812 -77.03125 6.238281 -76.175781 6.40625 -74.59375 C 6.445312 -73.570312 6.445312 -72.523438 6.40625 -71.453125 C 6.40625 -71.035156 6.40625 -70.601562 6.40625 -70.15625 C 6.40625 -70.15625 6.378906 -70.15625 6.328125 -70.15625 C 6.253906 -68.96875 6.195312 -67.78125 6.15625 -66.59375 C 5.945312 -63.9375 5.796875 -61.242188 5.703125 -58.515625 C 5.609375 -57.085938 5.734375 -56.191406 6.078125 -55.828125 C 6.429688 -55.472656 7.378906 -55.316406 8.921875 -55.359375 C 11.804688 -55.316406 14.6875 -55.296875 17.5625 -55.296875 C 19.613281 -55.296875 21.664062 -55.269531 23.71875 -55.21875 C 23.925781 -55.21875 24.125 -55.21875 24.3125 -55.21875 C 24.820312 -55.269531 25.304688 -55.253906 25.765625 -55.171875 C 26.234375 -55.085938 26.703125 -54.914062 27.171875 -54.65625 C 27.316406 -54.519531 27.453125 -54.375 27.578125 -54.21875 C 27.703125 -54.070312 27.800781 -53.867188 27.875 -53.609375 C 27.875 -53.359375 27.789062 -53.148438 27.625 -52.984375 C 27.46875 -52.816406 27.316406 -52.6875 27.171875 -52.59375 C 26.242188 -52.082031 25.265625 -51.875 24.234375 -51.96875 C 24.097656 -51.96875 23.925781 -51.96875 23.71875 -51.96875 C 20.632812 -51.96875 17.578125 -51.945312 14.546875 -51.90625 C 12.847656 -51.851562 11.132812 -51.828125 9.40625 -51.828125 C 9.289062 -51.828125 9.1875 -51.828125 9.09375 -51.828125 C 8.320312 -51.828125 7.53125 -51.804688 6.71875 -51.765625 C 5.875 -51.640625 5.382812 -51.171875 5.25 -50.359375 C 5.132812 -49.890625 5.078125 -49.4375 5.078125 -49 C 4.890625 -44.476562 4.804688 -39.945312 4.828125 -35.40625 C 4.847656 -30.875 5.140625 -26.367188 5.703125 -21.890625 C 6.171875 -18.296875 7.113281 -14.859375 8.53125 -11.578125 C 9.300781 -9.785156 10.238281 -8.375 11.34375 -7.34375 C 12.457031 -6.320312 13.703125 -5.890625 15.078125 -6.046875 C 17.640625 -6.472656 19.625 -7.390625 21.03125 -8.796875 C 22.445312 -10.203125 23.644531 -11.722656 24.625 -13.359375 C 25.550781 -14.941406 26.578125 -16.25 27.703125 -17.28125 Z M 27.703125 -17.28125 "/></g></g></g><g fill="#ffde59" fill-opacity="1"><g transform="translate(462.893761, 265.683968)"><g><path d="M 25.453125 -17.515625 C 25.765625 -17.359375 25.90625 -17.085938 25.875 -16.703125 C 25.851562 -16.316406 25.738281 -15.972656 25.53125 -15.671875 C 23.945312 -13.316406 22.242188 -11.226562 20.421875 -9.40625 C 18.609375 -7.59375 16.609375 -6.234375 14.421875 -5.328125 C 12.242188 -4.429688 9.742188 -4.179688 6.921875 -4.578125 C 5.035156 -4.878906 3.613281 -5.519531 2.65625 -6.5 C 1.695312 -7.476562 0.988281 -8.867188 0.53125 -10.671875 C -0.238281 -13.492188 -0.414062 -16.394531 0 -19.375 C 0.351562 -21.101562 1.425781 -22 3.21875 -22.0625 C 4.820312 -22.0625 5.695312 -21.34375 5.84375 -19.90625 C 5.882812 -18.707031 5.882812 -17.53125 5.84375 -16.375 C 5.84375 -16.207031 5.84375 -16.050781 5.84375 -15.90625 C 5.75 -12.71875 6.265625 -10.535156 7.390625 -9.359375 C 8.523438 -8.179688 10 -7.867188 11.8125 -8.421875 C 13.632812 -8.984375 15.570312 -10.269531 17.625 -12.28125 C 17.882812 -12.53125 18.207031 -12.875 18.59375 -13.3125 C 18.976562 -13.757812 19.398438 -14.207031 19.859375 -14.65625 C 20.515625 -15.332031 21.050781 -15.90625 21.46875 -16.375 C 22.75 -17.65625 24.078125 -18.035156 25.453125 -17.515625 Z M 2.765625 -27.203125 C 1.335938 -27.296875 0.519531 -28.066406 0.3125 -29.515625 C 0.144531 -30.640625 0.320312 -31.710938 0.84375 -32.734375 C 1.300781 -33.617188 2.054688 -34.222656 3.109375 -34.546875 C 4.160156 -34.878906 5.148438 -34.789062 6.078125 -34.28125 C 6.429688 -34.09375 6.679688 -33.828125 6.828125 -33.484375 C 6.984375 -33.148438 7.039062 -32.878906 7 -32.671875 C 6.945312 -28.984375 5.535156 -27.160156 2.765625 -27.203125 Z M 2.765625 -27.203125 "/></g></g></g><g fill="#ffde59" fill-opacity="1"><g transform="translate(484.332737, 265.683968)"><g><path d="M 30.84375 -17.515625 C 31.726562 -17.359375 32.21875 -16.882812 32.3125 -16.09375 C 32.40625 -15.300781 32 -14.492188 31.09375 -13.671875 C 30.207031 -12.898438 29.351562 -12.175781 28.53125 -11.5 C 26.476562 -9.820312 24.273438 -8.03125 21.921875 -6.125 C 20.085938 -4.625 18.398438 -2.976562 16.859375 -1.1875 C 15.710938 0.0195312 14.859375 1.394531 14.296875 2.9375 C 13.691406 4.945312 12.664062 6.742188 11.21875 8.328125 C 10.40625 9.253906 9.472656 9.820312 8.421875 10.03125 C 7.378906 10.25 6.285156 10.191406 5.140625 9.859375 C 4.578125 9.722656 4.15625 9.429688 3.875 8.984375 C 3.601562 8.546875 3.546875 8.046875 3.703125 7.484375 C 3.890625 6.617188 4.21875 5.800781 4.6875 5.03125 C 5.363281 4.050781 6.085938 3.097656 6.859375 2.171875 C 6.898438 2.078125 6.96875 1.984375 7.0625 1.890625 C 9.75 -1.441406 9.910156 -4.859375 7.546875 -8.359375 C 6.972656 -9.128906 6.332031 -9.875 5.625 -10.59375 C 5.414062 -10.851562 5.1875 -11.109375 4.9375 -11.359375 C 4.507812 -11.878906 4.066406 -12.367188 3.609375 -12.828125 C 2.742188 -13.742188 1.898438 -14.710938 1.078125 -15.734375 C -1.222656 -18.972656 -1.070312 -22.078125 1.53125 -25.046875 C 3.800781 -27.722656 6.625 -29.570312 10 -30.59375 C 12.101562 -31.207031 14.132812 -31.023438 16.09375 -30.046875 C 17.976562 -29.015625 18.847656 -27.425781 18.703125 -25.28125 C 18.492188 -23.84375 17.773438 -22.992188 16.546875 -22.734375 C 14.960938 -22.429688 13.832031 -22.921875 13.15625 -24.203125 C 12.9375 -24.710938 12.78125 -25.15625 12.6875 -25.53125 C 12.601562 -25.925781 12.476562 -26.226562 12.3125 -26.4375 C 12.144531 -26.644531 11.882812 -26.707031 11.53125 -26.625 C 11.1875 -26.550781 10.628906 -26.28125 9.859375 -25.8125 C 8.671875 -25.113281 7.644531 -24.191406 6.78125 -23.046875 C 5.382812 -21.367188 5.304688 -19.570312 6.546875 -17.65625 C 6.960938 -17.050781 7.425781 -16.492188 7.9375 -15.984375 C 8.5 -15.347656 9.035156 -14.726562 9.546875 -14.125 C 10.578125 -13.101562 11.550781 -12.054688 12.46875 -10.984375 C 13.382812 -9.910156 14.179688 -8.753906 14.859375 -7.515625 C 15.378906 -7.609375 16.28125 -8.09375 17.5625 -8.96875 C 18.84375 -9.84375 20.234375 -10.859375 21.734375 -12.015625 C 23.234375 -13.171875 24.601562 -14.210938 25.84375 -15.140625 C 26.875 -15.960938 27.597656 -16.523438 28.015625 -16.828125 C 28.359375 -17.078125 28.785156 -17.265625 29.296875 -17.390625 C 29.816406 -17.523438 30.332031 -17.566406 30.84375 -17.515625 Z M 30.84375 -17.515625 "/></g></g></g><g fill="#ffde59" fill-opacity="1"><g transform="translate(511.927115, 265.683968)"><g><path d="M 27.703125 -17.28125 C 28.210938 -17.695312 28.59375 -17.835938 28.84375 -17.703125 C 29.101562 -17.578125 29.285156 -17.320312 29.390625 -16.9375 C 29.492188 -16.5625 29.546875 -16.1875 29.546875 -15.8125 C 29.503906 -15.113281 29.363281 -14.441406 29.125 -13.796875 C 28.894531 -13.148438 28.734375 -12.722656 28.640625 -12.515625 C 28.566406 -12.472656 28.53125 -12.453125 28.53125 -12.453125 C 27.832031 -10.648438 26.722656 -8.875 25.203125 -7.125 C 23.691406 -5.382812 21.910156 -3.976562 19.859375 -2.90625 C 17.804688 -1.832031 15.628906 -1.363281 13.328125 -1.5 C 10.085938 -1.875 7.503906 -3.117188 5.578125 -5.234375 C 3.648438 -7.359375 2.203125 -9.894531 1.234375 -12.84375 C 0.273438 -15.800781 -0.367188 -18.710938 -0.703125 -21.578125 C -1.566406 -28.660156 -1.820312 -35.796875 -1.46875 -42.984375 C -1.394531 -44.734375 -1.335938 -46.484375 -1.296875 -48.234375 C -1.296875 -48.835938 -1.296875 -49.441406 -1.296875 -50.046875 C -1.296875 -51.191406 -1.832031 -51.765625 -2.90625 -51.765625 C -4.039062 -51.765625 -5.171875 -51.785156 -6.296875 -51.828125 C -7.535156 -51.828125 -8.796875 -51.828125 -10.078125 -51.828125 C -10.234375 -51.828125 -10.40625 -51.828125 -10.59375 -51.828125 C -11.476562 -51.734375 -12.304688 -51.882812 -13.078125 -52.28125 C -13.429688 -52.445312 -13.722656 -52.671875 -13.953125 -52.953125 C -14.179688 -53.234375 -14.296875 -53.582031 -14.296875 -54 C -14.253906 -54.394531 -14.09375 -54.707031 -13.8125 -54.9375 C -13.53125 -55.175781 -13.179688 -55.296875 -12.765625 -55.296875 C -11.273438 -55.335938 -9.78125 -55.359375 -8.28125 -55.359375 C -7.375 -55.359375 -6.476562 -55.359375 -5.59375 -55.359375 C -4.425781 -55.359375 -3.25 -55.414062 -2.0625 -55.53125 C -1.40625 -55.582031 -1 -55.96875 -0.84375 -56.6875 C -0.75 -57.550781 -0.664062 -58.414062 -0.59375 -59.28125 C -0.40625 -62.101562 -0.207031 -64.925781 0 -67.75 C 0.164062 -69.707031 0.316406 -71.628906 0.453125 -73.515625 C 0.453125 -73.585938 0.453125 -73.644531 0.453125 -73.6875 C 0.453125 -74.082031 0.488281 -74.46875 0.5625 -74.84375 C 0.957031 -76.476562 2.050781 -77.25 3.84375 -77.15625 C 5.382812 -77.03125 6.238281 -76.175781 6.40625 -74.59375 C 6.445312 -73.570312 6.445312 -72.523438 6.40625 -71.453125 C 6.40625 -71.035156 6.40625 -70.601562 6.40625 -70.15625 C 6.40625 -70.15625 6.378906 -70.15625 6.328125 -70.15625 C 6.253906 -68.96875 6.195312 -67.78125 6.15625 -66.59375 C 5.945312 -63.9375 5.796875 -61.242188 5.703125 -58.515625 C 5.609375 -57.085938 5.734375 -56.191406 6.078125 -55.828125 C 6.429688 -55.472656 7.378906 -55.316406 8.921875 -55.359375 C 11.804688 -55.316406 14.6875 -55.296875 17.5625 -55.296875 C 19.613281 -55.296875 21.664062 -55.269531 23.71875 -55.21875 C 23.925781 -55.21875 24.125 -55.21875 24.3125 -55.21875 C 24.820312 -55.269531 25.304688 -55.253906 25.765625 -55.171875 C 26.234375 -55.085938 26.703125 -54.914062 27.171875 -54.65625 C 27.316406 -54.519531 27.453125 -54.375 27.578125 -54.21875 C 27.703125 -54.070312 27.800781 -53.867188 27.875 -53.609375 C 27.875 -53.359375 27.789062 -53.148438 27.625 -52.984375 C 27.46875 -52.816406 27.316406 -52.6875 27.171875 -52.59375 C 26.242188 -52.082031 25.265625 -51.875 24.234375 -51.96875 C 24.097656 -51.96875 23.925781 -51.96875 23.71875 -51.96875 C 20.632812 -51.96875 17.578125 -51.945312 14.546875 -51.90625 C 12.847656 -51.851562 11.132812 -51.828125 9.40625 -51.828125 C 9.289062 -51.828125 9.1875 -51.828125 9.09375 -51.828125 C 8.320312 -51.828125 7.53125 -51.804688 6.71875 -51.765625 C 5.875 -51.640625 5.382812 -51.171875 5.25 -50.359375 C 5.132812 -49.890625 5.078125 -49.4375 5.078125 -49 C 4.890625 -44.476562 4.804688 -39.945312 4.828125 -35.40625 C 4.847656 -30.875 5.140625 -26.367188 5.703125 -21.890625 C 6.171875 -18.296875 7.113281 -14.859375 8.53125 -11.578125 C 9.300781 -9.785156 10.238281 -8.375 11.34375 -7.34375 C 12.457031 -6.320312 13.703125 -5.890625 15.078125 -6.046875 C 17.640625 -6.472656 19.625 -7.390625 21.03125 -8.796875 C 22.445312 -10.203125 23.644531 -11.722656 24.625 -13.359375 C 25.550781 -14.941406 26.578125 -16.25 27.703125 -17.28125 Z M 27.703125 -17.28125 "/></g></g></g><g fill="#ffde59" fill-opacity="1"><g transform="translate(537.493029, 265.683968)"><g><path d="M 32.03125 -17.59375 C 32.289062 -17.539062 32.46875 -17.460938 32.5625 -17.359375 C 32.65625 -17.253906 32.757812 -17.050781 32.875 -16.75 C 32.96875 -16.445312 32.863281 -16.082031 32.5625 -15.65625 C 32.257812 -15.238281 31.976562 -14.90625 31.71875 -14.65625 C 29.8125 -12.851562 27.570312 -11.78125 25 -11.4375 C 23.53125 -11.226562 22.0625 -11.175781 20.59375 -11.28125 C 19.125 -11.382812 17.679688 -11.738281 16.265625 -12.34375 C 15.234375 -12.851562 14.273438 -12.703125 13.390625 -11.890625 C 11.546875 -10.210938 9.625 -8.601562 7.625 -7.0625 C 6.59375 -6.289062 5.507812 -5.648438 4.375 -5.140625 C 3.25 -4.628906 2.023438 -4.335938 0.703125 -4.265625 C -3.191406 -4.335938 -4.734375 -6.238281 -3.921875 -9.96875 C -3.867188 -10.132812 -3.804688 -10.265625 -3.734375 -10.359375 C -2.617188 -13.390625 -1.140625 -16.117188 0.703125 -18.546875 C 2.546875 -20.984375 4.875 -23.019531 7.6875 -24.65625 C 9.550781 -25.75 11.554688 -26.171875 13.703125 -25.921875 C 14.265625 -25.796875 14.800781 -25.582031 15.3125 -25.28125 C 15.945312 -24.976562 16.207031 -24.488281 16.09375 -23.8125 C 16.039062 -23.601562 15.9375 -23.421875 15.78125 -23.265625 C 15.632812 -23.117188 15.476562 -22.976562 15.3125 -22.84375 C 15.21875 -22.71875 15.09375 -22.628906 14.9375 -22.578125 C 14.789062 -22.535156 14.640625 -22.515625 14.484375 -22.515625 C 12.941406 -22.472656 11.613281 -22.023438 10.5 -21.171875 C 9.394531 -20.328125 8.390625 -19.367188 7.484375 -18.296875 C 6.460938 -17.148438 5.515625 -15.890625 4.640625 -14.515625 C 3.765625 -13.140625 3.046875 -11.492188 2.484375 -9.578125 C 4.535156 -10.765625 6.144531 -11.941406 7.3125 -13.109375 C 7.5625 -13.367188 7.816406 -13.601562 8.078125 -13.8125 C 8.285156 -14.019531 8.492188 -14.207031 8.703125 -14.375 C 9.734375 -15.332031 10.804688 -16.171875 11.921875 -16.890625 C 13.203125 -17.609375 14.472656 -17.96875 15.734375 -17.96875 C 16.992188 -17.96875 18.21875 -17.457031 19.40625 -16.4375 C 21.039062 -14.988281 22.625 -14.421875 24.15625 -14.734375 C 25.695312 -15.054688 27.132812 -15.601562 28.46875 -16.375 C 29.820312 -17.1875 31.007812 -17.59375 32.03125 -17.59375 Z M 32.03125 -17.59375 "/></g></g></g></svg>