<svg version="1.1" id="Layer_1" xmlns="http://www.w3.org/2000/svg" xmlns:xlink="http://www.w3.org/1999/xlink" x="0px" y="0px"
	 width="100%" viewBox="0 0 500 500" enable-background="new 0 0 500 500" xml:space="preserve">
<path fill="#000000" opacity="1.000000" stroke="none" 
	d="
M290.000000,501.000000 
	C193.333359,501.000000 97.166710,501.000000 1.000051,501.000000 
	C1.000034,334.333405 1.000034,167.666794 1.000017,1.000141 
	C167.666565,1.000094 334.333130,1.000094 500.999756,1.000047 
	C500.999847,167.666519 500.999847,334.333038 500.999939,500.999786 
	C430.833344,501.000000 360.666656,501.000000 290.000000,501.000000 
M350.683197,258.710907 
	C350.548584,258.592407 350.413940,258.473938 350.738617,257.835266 
	C353.053070,256.197052 355.367523,254.558853 358.170074,252.575195 
	C357.243286,252.082077 356.284546,251.256088 355.209290,251.055771 
	C351.055603,250.281937 347.771149,252.207657 345.347900,255.253387 
	C342.186768,259.226501 337.959564,259.649078 333.520630,260.052551 
	C330.414429,238.557693 318.414337,231.634338 290.856720,234.111847 
	C292.221222,232.274750 294.336761,231.166946 295.884491,229.524170 
	C302.599518,222.396622 309.275604,215.171051 312.994080,205.897842 
	C317.217621,195.365173 312.541656,189.520691 303.045013,188.145782 
	C294.879059,186.963531 286.619019,188.349091 279.054413,191.636230 
	C274.687988,193.533646 270.855255,196.761993 267.025452,199.707413 
	C266.232910,200.316940 266.158020,202.409683 266.452087,203.653427 
	C266.602478,204.289551 268.409882,205.055237 269.272125,204.866379 
	C270.289917,204.643433 271.209198,203.548431 271.965607,202.657013 
	C272.996338,201.442307 273.547668,199.602509 274.798309,198.827866 
	C283.352783,193.529205 292.753448,191.236664 302.772339,192.087952 
	C306.587769,192.412125 309.937744,197.015335 308.868988,200.261734 
	C307.772766,203.591644 306.508087,207.045227 304.497772,209.859344 
	C299.726410,216.538422 294.470337,222.871201 289.410156,229.343948 
	C288.971588,229.228348 288.532990,229.112747 288.094421,228.997131 
	C287.665192,221.798325 289.087372,214.167343 284.652496,207.907303 
	C278.705566,209.795013 282.141541,213.591721 282.063049,216.408463 
	C281.601227,232.986832 281.264191,249.569748 281.063141,266.153290 
	C281.026978,269.134491 279.254486,269.333832 277.157379,270.054230 
	C267.892212,273.236969 258.500122,276.172150 249.539261,280.080322 
	C242.236404,283.265411 238.697113,289.987854 241.258713,295.980988 
	C242.848114,299.699524 246.447968,303.224396 250.033829,305.305206 
	C263.393341,313.057465 277.941376,314.041168 292.541809,309.883331 
	C314.919922,303.510590 331.177277,288.733734 333.519531,264.075439 
	C335.915802,264.710480 338.943359,264.603088 340.258972,266.051086 
	C342.988251,269.054962 346.276581,270.619446 349.291077,267.725677 
	C353.802460,263.394989 358.848206,262.540588 364.607819,262.943909 
	C365.955780,263.038330 367.351776,262.446930 368.675751,262.181061 
	C373.337799,271.871460 378.786804,273.374146 387.824524,267.801483 
	C388.683105,267.272064 390.351898,267.317261 391.297058,267.790192 
	C396.635590,270.461426 400.976624,268.658264 405.279816,265.351318 
	C406.573669,264.356995 408.507996,264.196045 410.148895,263.653290 
	C410.931458,266.111084 412.266052,268.560852 412.301941,271.029510 
	C412.325806,272.668854 410.144836,274.230591 409.605011,276.023987 
	C409.203979,277.356171 409.853363,279.004547 410.034882,280.512085 
	C411.533508,280.324005 413.199860,280.478699 414.483307,279.850769 
	C415.751160,279.230469 416.749329,277.910522 417.661835,276.738647 
	C421.148254,272.261383 424.552429,267.720001 427.339539,264.054474 
	C431.914520,266.906921 435.123352,270.486572 438.494415,270.646454 
	C443.804718,270.898346 450.422028,270.396759 454.299713,267.392334 
	C459.360413,263.471313 464.181274,263.004791 469.805176,262.935272 
	C473.887665,262.884796 475.617676,260.798248 475.355835,256.551819 
	C473.605865,257.396729 472.112000,258.420715 470.466003,258.824738 
	C468.919769,259.204254 466.508759,259.627502 465.703430,258.815857 
	C462.840424,255.930405 460.028229,257.185852 456.683197,257.710907 
	C456.548584,257.592407 456.413940,257.473938 456.753235,256.821228 
	C458.659882,255.279114 460.566498,253.736984 463.079010,251.704788 
	C455.950684,249.778992 451.944183,252.280426 448.993683,257.099091 
	C447.813660,259.026306 446.932343,261.197968 445.474609,262.875671 
	C444.119171,264.435669 442.283722,266.232269 440.456299,266.491547 
	C439.298157,266.655792 437.275513,264.444824 436.484436,262.874146 
	C431.361755,252.703156 433.353577,241.833038 433.023834,231.160614 
	C450.258331,230.464111 450.258331,230.464111 450.592194,226.874878 
	C445.138580,226.874878 439.714203,226.874878 433.998901,226.874878 
	C433.998901,221.830063 434.165985,217.185699 433.886871,212.568329 
	C433.812744,211.342133 432.368042,210.198792 431.552643,209.017380 
	C430.381775,210.033768 428.781555,210.843384 428.163879,212.126144 
	C427.575775,213.347610 428.098724,215.069611 427.982880,216.559860 
	C427.712158,220.041885 427.351196,223.516922 426.967102,227.634933 
	C422.859344,227.634933 419.548370,227.634933 416.237366,227.634933 
	C416.167786,228.318604 416.098206,229.002274 416.028625,229.685944 
	C419.622009,230.346024 423.215424,231.006088 426.506287,231.610596 
	C427.004669,240.059219 427.519897,248.436676 427.954102,256.818298 
	C427.989471,257.501343 427.676575,258.474518 427.175842,258.868011 
	C424.411163,261.040710 421.537903,263.075256 418.855499,265.044373 
	C416.631042,262.568848 414.680847,260.367432 412.695099,258.198547 
	C411.130157,256.489197 411.043182,254.677155 412.959381,253.428757 
	C413.871521,252.834503 415.425659,253.268555 416.680206,253.146484 
	C418.389679,252.980148 420.090790,252.727478 421.795441,252.511856 
	C421.148712,250.796448 421.003784,248.336441 419.764069,247.500961 
	C415.528625,244.646545 404.506226,250.256378 405.313721,255.171860 
	C406.073730,259.798157 403.247162,261.328278 400.975189,263.355835 
	C397.568970,266.395508 394.580597,264.957611 394.045380,260.288727 
	C393.822937,258.348114 394.008423,256.360687 394.008423,254.394562 
	C393.606537,254.000885 393.204651,253.607224 392.802765,253.213562 
	C391.216827,254.445953 388.340881,255.607208 388.268311,256.923065 
	C387.954742,262.609009 384.512970,265.133820 379.948700,266.959015 
	C372.142761,263.084290 372.247803,246.683716 373.557892,231.291763 
	C390.189178,229.884674 390.189178,229.884674 390.844940,226.999588 
	C386.121918,226.999588 381.478088,226.887268 376.842865,227.038483 
	C373.670837,227.141953 372.694855,225.713730 373.043335,222.785965 
	C373.428528,219.549881 373.963806,216.290482 373.868683,213.057861 
	C373.828369,211.688599 372.441437,209.310257 371.502106,209.226120 
	C369.284210,209.027390 367.880096,210.307831 367.893951,213.183289 
	C367.915741,217.707474 367.243500,222.235031 366.837341,227.093536 
	C363.015839,227.093536 359.579834,227.093536 355.353241,227.093536 
	C357.994598,233.280609 363.602905,229.583725 366.757690,231.482895 
	C366.757690,240.449738 366.757690,249.176285 366.757690,258.358063 
	C365.557129,258.642731 362.945312,260.017029 362.154724,259.321411 
	C358.325470,255.952255 354.812164,256.724579 350.683197,258.710907 
M226.674286,263.123932 
	C233.573013,266.933960 244.157196,265.351715 250.120560,258.404175 
	C247.052734,258.713135 245.145660,258.494385 243.588638,259.131317 
	C235.766968,262.331024 234.148163,262.043884 228.571548,256.111145 
	C226.069870,253.449707 223.248215,251.681122 219.474594,253.903336 
	C217.156448,255.268463 214.858398,257.365845 212.216797,254.192474 
	C212.028763,253.966583 209.363159,254.958664 209.180099,255.709015 
	C207.920761,260.870850 205.347977,260.044312 201.726898,258.084778 
	C200.152298,257.232697 197.794769,257.597687 195.829285,257.787476 
	C194.724854,257.894104 193.694763,258.770782 192.631180,259.300537 
	C192.393066,258.892456 192.154968,258.484375 191.916870,258.076294 
	C194.533707,256.384491 197.150543,254.692719 200.396057,252.594513 
	C199.092316,252.027161 197.950912,251.196075 196.729691,251.054810 
	C190.183640,250.297485 187.275024,255.192657 184.132095,259.535889 
	C181.348434,263.382660 178.640991,267.215485 172.787430,268.233734 
	C173.240311,264.551575 173.054886,261.136932 174.159729,258.209198 
	C175.894791,253.611465 173.220093,253.896088 170.392334,254.057831 
	C169.393188,254.114960 168.421356,254.649261 167.251389,255.025406 
	C167.551239,252.809616 167.790726,251.039932 168.014267,249.388062 
	C161.879166,247.702560 161.843887,251.845459 160.947464,255.315491 
	C160.559937,256.815643 159.705948,259.260620 158.845505,259.358612 
	C156.859787,259.584686 153.926086,259.323944 152.837784,258.031036 
	C150.229492,254.932297 147.468094,253.150452 143.012695,254.053146 
	C142.838364,237.414139 148.498367,222.163513 150.415375,205.815765 
	C148.142014,206.474762 145.755371,207.408127 145.167923,209.003860 
	C139.898651,223.316559 138.078995,238.345200 137.154617,253.433502 
	C136.842941,258.520569 134.669952,260.709259 129.999313,262.026733 
	C129.999313,259.004547 130.189499,256.327728 129.916763,253.698944 
	C129.786041,252.438828 129.025177,250.565338 128.104691,250.243866 
	C127.039757,249.871964 125.142159,250.536896 124.218536,251.404037 
	C122.578224,252.944061 121.488960,255.053574 119.993874,256.772369 
	C119.112633,257.785522 117.894150,258.505310 115.967079,260.043884 
	C115.967079,255.883224 115.967079,253.088959 115.967079,250.306549 
	C110.664238,250.194443 110.503914,250.394485 109.639687,257.688171 
	C108.135803,258.447083 106.686691,259.178345 104.872108,260.094025 
	C101.376381,256.007690 96.989677,256.428009 92.308624,259.327881 
	C92.231384,258.841797 92.154144,258.355713 92.076904,257.869629 
	C94.695274,256.202271 97.313652,254.534897 100.347351,252.603058 
	C99.234459,252.007172 98.351067,251.217667 97.365623,251.058014 
	C91.054993,250.035583 81.292679,259.020752 82.228432,265.273743 
	C82.437729,266.672363 84.669380,268.740448 86.016991,268.777252 
	C88.244781,268.838043 91.354820,268.181396 92.613167,266.628174 
	C97.783226,260.246460 105.286728,262.788574 111.133873,262.738617 
	C115.116928,262.704529 119.229446,264.007599 122.831772,262.191223 
	C125.064354,269.722931 119.233643,274.024902 116.055588,279.456421 
	C110.614983,288.754852 103.708458,297.452606 103.988007,309.097321 
	C104.123428,314.738678 109.056778,318.014954 114.106194,315.161285 
	C116.563148,313.772736 118.483223,311.005615 120.010994,308.478455 
	C125.521484,299.363281 126.990891,289.019440 127.870529,278.702637 
	C128.406555,272.415955 131.197647,268.218689 137.000000,264.356262 
	C137.000000,266.766998 136.771957,268.385284 137.042068,269.915649 
	C137.908096,274.822235 138.613205,279.807831 140.134552,284.519409 
	C140.632385,286.061188 143.482208,287.807526 145.174118,287.727173 
	C146.848373,287.647675 148.865585,285.658752 149.902847,283.991302 
	C150.847229,282.473206 150.901688,280.268860 150.955902,278.355835 
	C151.090210,273.616974 151.000000,268.871765 151.000000,265.767578 
	C156.928055,264.108612 161.808807,262.742767 166.777847,261.352173 
	C166.777847,262.963959 167.023712,264.799286 166.730911,266.544220 
	C165.912003,271.424561 167.243515,273.635712 172.054337,272.846771 
	C178.501297,271.789520 184.771164,269.650757 191.113373,267.962372 
	C191.420151,267.880707 191.798233,267.738922 191.963226,267.500610 
	C195.873672,261.852295 202.275330,261.416626 207.186127,263.338684 
	C214.362411,266.147430 218.010864,263.539062 221.474136,258.202728 
	C221.586258,258.029999 222.086258,258.108978 222.722366,258.032532 
	C223.785294,259.481384 224.934982,261.048492 226.674286,263.123932 
M31.000004,276.322571 
	C31.646990,281.148590 32.098682,286.014587 33.073429,290.773468 
	C33.328350,292.018066 35.209202,292.929626 36.343323,293.994141 
	C37.561359,292.675201 39.690491,291.452271 39.841293,290.020905 
	C40.530869,283.475586 40.600330,276.867432 41.037716,270.291534 
	C41.179043,268.166748 41.763435,266.071442 42.287376,263.176941 
	C57.838554,270.620514 72.547348,277.660889 87.978485,285.046997 
	C87.021973,279.046661 73.381897,271.178558 47.339138,260.305237 
	C48.996662,259.851532 50.524937,259.280457 52.104275,259.024719 
	C66.929375,256.624237 80.178093,251.131561 89.537720,238.835327 
	C93.727264,233.331314 95.642693,227.012436 94.424072,219.723083 
	C92.679909,209.290039 85.540390,204.434128 76.706055,201.030334 
	C65.297867,196.634842 53.343529,196.732040 41.871979,199.390137 
	C33.922089,201.232239 26.440359,205.623123 19.201870,209.681992 
	C17.057848,210.884232 16.450874,214.827606 15.139558,217.514877 
	C16.843430,218.159042 18.547300,218.803223 20.251173,219.447388 
	C20.051577,218.943787 19.851980,218.440201 19.652384,217.936600 
	C22.058008,215.297363 24.025412,211.954819 26.942875,210.137054 
	C41.934544,200.796234 58.220215,198.718475 74.492874,205.431992 
	C89.593079,211.661804 92.324493,226.300552 82.489685,238.089203 
	C76.590782,245.159988 69.137123,249.815048 60.620789,252.605103 
	C54.767273,254.522781 48.546627,255.319824 41.413147,256.848541 
	C41.413147,239.724747 41.413147,224.048798 41.413147,208.216156 
	C39.171120,208.216156 37.771553,208.216156 35.956589,208.216156 
	C35.956589,221.173508 35.956589,233.926071 35.956589,246.615494 
	C34.026306,246.947754 32.510189,247.208725 31.000000,247.468674 
	C31.000000,257.039185 31.000000,266.198181 31.000004,276.322571 
M389.334839,249.791534 
	C392.124237,250.964188 394.515564,250.636154 394.848236,247.244431 
	C394.971893,245.983719 393.241302,243.335388 392.645050,243.417465 
	C389.986328,243.783493 388.320526,245.504089 389.011841,248.565628 
	C389.047516,248.723602 389.028839,248.893814 389.334839,249.791534 
z"/>
<path fill="#FFDE59" opacity="1.000000" stroke="none" 
	d="
M457.074463,258.080231 
	C460.028229,257.185852 462.840424,255.930405 465.703430,258.815857 
	C466.508759,259.627502 468.919769,259.204254 470.466003,258.824738 
	C472.112000,258.420715 473.605865,257.396729 475.355835,256.551819 
	C475.617676,260.798248 473.887665,262.884796 469.805176,262.935272 
	C464.181274,263.004791 459.360413,263.471313 454.299713,267.392334 
	C450.422028,270.396759 443.804718,270.898346 438.494415,270.646454 
	C435.123352,270.486572 431.914520,266.906921 427.339539,264.054474 
	C424.552429,267.720001 421.148254,272.261383 417.661835,276.738647 
	C416.749329,277.910522 415.751160,279.230469 414.483307,279.850769 
	C413.199860,280.478699 411.533508,280.324005 410.034882,280.512085 
	C409.853363,279.004547 409.203979,277.356171 409.605011,276.023987 
	C410.144836,274.230591 412.325806,272.668854 412.301941,271.029510 
	C412.266052,268.560852 410.931458,266.111084 410.148895,263.653290 
	C408.507996,264.196045 406.573669,264.356995 405.279816,265.351318 
	C400.976624,268.658264 396.635590,270.461426 391.297058,267.790192 
	C390.351898,267.317261 388.683105,267.272064 387.824524,267.801483 
	C378.786804,273.374146 373.337799,271.871460 368.675751,262.181061 
	C367.351776,262.446930 365.955780,263.038330 364.607819,262.943909 
	C358.848206,262.540588 353.802460,263.394989 349.291077,267.725677 
	C346.276581,270.619446 342.988251,269.054962 340.258972,266.051086 
	C338.943359,264.603088 335.915802,264.710480 333.519531,264.075439 
	C331.177277,288.733734 314.919922,303.510590 292.541809,309.883331 
	C277.941376,314.041168 263.393341,313.057465 250.033829,305.305206 
	C246.447968,303.224396 242.848114,299.699524 241.258713,295.980988 
	C238.697113,289.987854 242.236404,283.265411 249.539261,280.080322 
	C258.500122,276.172150 267.892212,273.236969 277.157379,270.054230 
	C279.254486,269.333832 281.026978,269.134491 281.063141,266.153290 
	C281.264191,249.569748 281.601227,232.986832 282.063049,216.408463 
	C282.141541,213.591721 278.705566,209.795013 284.652496,207.907303 
	C289.087372,214.167343 287.665192,221.798325 288.094421,228.997131 
	C288.532990,229.112747 288.971588,229.228348 289.410156,229.343948 
	C294.470337,222.871201 299.726410,216.538422 304.497772,209.859344 
	C306.508087,207.045227 307.772766,203.591644 308.868988,200.261734 
	C309.937744,197.015335 306.587769,192.412125 302.772339,192.087952 
	C292.753448,191.236664 283.352783,193.529205 274.798309,198.827866 
	C273.547668,199.602509 272.996338,201.442307 271.965607,202.657013 
	C271.209198,203.548431 270.289917,204.643433 269.272125,204.866379 
	C268.409882,205.055237 266.602478,204.289551 266.452087,203.653427 
	C266.158020,202.409683 266.232910,200.316940 267.025452,199.707413 
	C270.855255,196.761993 274.687988,193.533646 279.054413,191.636230 
	C286.619019,188.349091 294.879059,186.963531 303.045013,188.145782 
	C312.541656,189.520691 317.217621,195.365173 312.994080,205.897842 
	C309.275604,215.171051 302.599518,222.396622 295.884491,229.524170 
	C294.336761,231.166946 292.221222,232.274750 290.856720,234.111847 
	C318.414337,231.634338 330.414429,238.557693 333.520630,260.052551 
	C337.959564,259.649078 342.186768,259.226501 345.347900,255.253387 
	C347.771149,252.207657 351.055603,250.281937 355.209290,251.055771 
	C356.284546,251.256088 357.243286,252.082077 358.170074,252.575195 
	C355.367523,254.558853 353.053070,256.197052 350.287811,258.288940 
	C349.682587,259.082367 349.528168,259.422119 349.373718,259.761841 
	C349.940643,259.534668 350.507568,259.307465 351.074463,259.080261 
	C354.812164,256.724579 358.325470,255.952255 362.154724,259.321411 
	C362.945312,260.017029 365.557129,258.642731 366.757690,258.358063 
	C366.757690,249.176285 366.757690,240.449738 366.757690,231.482895 
	C363.602905,229.583725 357.994598,233.280609 355.353241,227.093536 
	C359.579834,227.093536 363.015839,227.093536 366.837341,227.093536 
	C367.243500,222.235031 367.915741,217.707474 367.893951,213.183289 
	C367.880096,210.307831 369.284210,209.027390 371.502106,209.226120 
	C372.441437,209.310257 373.828369,211.688599 373.868683,213.057861 
	C373.963806,216.290482 373.428528,219.549881 373.043335,222.785965 
	C372.694855,225.713730 373.670837,227.141953 376.842865,227.038483 
	C381.478088,226.887268 386.121918,226.999588 390.844940,226.999588 
	C390.189178,229.884674 390.189178,229.884674 373.557892,231.291763 
	C372.247803,246.683716 372.142761,263.084290 379.948700,266.959015 
	C384.512970,265.133820 387.954742,262.609009 388.268311,256.923065 
	C388.340881,255.607208 391.216827,254.445953 392.802765,253.213562 
	C393.204651,253.607224 393.606537,254.000885 394.008423,254.394562 
	C394.008423,256.360687 393.822937,258.348114 394.045380,260.288727 
	C394.580597,264.957611 397.568970,266.395508 400.975189,263.355835 
	C403.247162,261.328278 406.073730,259.798157 405.313721,255.171860 
	C404.506226,250.256378 415.528625,244.646545 419.764069,247.500961 
	C421.003784,248.336441 421.148712,250.796448 421.795471,252.511856 
	C420.090790,252.727478 418.389679,252.980148 416.680206,253.146484 
	C415.425659,253.268555 413.871521,252.834503 412.959381,253.428757 
	C411.043182,254.677155 411.130157,256.489197 412.695099,258.198547 
	C414.680847,260.367432 416.631042,262.568848 418.855499,265.044373 
	C421.537903,263.075256 424.411163,261.040710 427.175842,258.868011 
	C427.676575,258.474518 427.989471,257.501343 427.954102,256.818298 
	C427.519897,248.436676 427.004669,240.059219 426.506287,231.610596 
	C423.215424,231.006088 419.622009,230.346024 416.028625,229.685944 
	C416.098206,229.002274 416.167786,228.318604 416.237366,227.634933 
	C419.548370,227.634933 422.859344,227.634933 426.967102,227.634933 
	C427.351196,223.516922 427.712158,220.041885 427.982880,216.559860 
	C428.098724,215.069611 427.575775,213.347610 428.163879,212.126144 
	C428.781555,210.843384 430.381775,210.033768 431.552643,209.017395 
	C432.368042,210.198792 433.812744,211.342133 433.886871,212.568329 
	C434.165985,217.185699 433.998901,221.830063 433.998901,226.874878 
	C439.714203,226.874878 445.138580,226.874878 450.592194,226.874878 
	C450.258331,230.464111 450.258331,230.464111 433.023834,231.160614 
	C433.353577,241.833038 431.361755,252.703156 436.484436,262.874146 
	C437.275513,264.444824 439.298157,266.655792 440.456299,266.491547 
	C442.283722,266.232269 444.119171,264.435669 445.474609,262.875671 
	C446.932343,261.197968 447.813660,259.026306 448.993683,257.099091 
	C451.944183,252.280426 455.950684,249.778992 463.079010,251.704788 
	C460.566498,253.736984 458.659882,255.279114 456.295105,257.281921 
	C455.682526,258.082336 455.528107,258.422089 455.373718,258.761841 
	C455.940643,258.534637 456.507538,258.307434 457.074463,258.080231 
M246.000732,292.489563 
	C246.257263,293.403229 246.324875,294.431580 246.799210,295.213074 
	C252.266602,304.220825 261.623932,307.024200 270.848785,307.748230 
	C292.782043,309.469727 310.406281,300.823212 322.212280,282.013885 
	C325.037628,277.512482 325.844452,271.744141 328.009033,265.275360 
	C312.985992,267.775757 299.705902,269.986053 286.469788,272.189026 
	C285.333344,277.917877 284.947327,277.980682 280.066925,274.734314 
	C279.087158,274.082611 277.231018,274.201233 275.979279,274.597534 
	C269.537109,276.637085 262.897766,278.335663 256.847137,281.237366 
	C252.351044,283.393585 247.183456,285.723694 246.000732,292.489563 
M323.967072,248.759506 
	C321.549286,244.062653 318.044647,240.220718 312.764343,239.463440 
	C306.154297,238.515427 299.405548,238.248657 292.716248,238.243591 
	C288.557617,238.240448 286.974335,241.100403 286.930878,245.257751 
	C286.865753,251.485077 286.327576,257.707092 286.008667,263.932281 
	C285.850281,267.024200 286.414490,267.935547 290.215118,267.212067 
	C302.295471,264.912476 314.531494,263.430359 327.897217,261.456604 
	C326.566742,257.301575 325.322083,253.414505 323.967072,248.759506 
z"/>
<path fill="#FFDE59" opacity="1.000000" stroke="none" 
	d="
M226.379471,262.869751 
	C224.934982,261.048492 223.785294,259.481384 222.722366,258.032532 
	C222.086258,258.108978 221.586258,258.029999 221.474136,258.202728 
	C218.010864,263.539062 214.362411,266.147430 207.186127,263.338684 
	C202.275330,261.416626 195.873672,261.852295 191.963226,267.500610 
	C191.798233,267.738922 191.420151,267.880707 191.113373,267.962372 
	C184.771164,269.650757 178.501297,271.789520 172.054337,272.846771 
	C167.243515,273.635712 165.912003,271.424561 166.730911,266.544220 
	C167.023712,264.799286 166.777847,262.963959 166.777847,261.352173 
	C161.808807,262.742767 156.928055,264.108612 151.000000,265.767578 
	C151.000000,268.871765 151.090210,273.616974 150.955902,278.355835 
	C150.901688,280.268860 150.847229,282.473206 149.902847,283.991302 
	C148.865585,285.658752 146.848373,287.647675 145.174118,287.727173 
	C143.482208,287.807526 140.632385,286.061188 140.134552,284.519409 
	C138.613205,279.807831 137.908096,274.822235 137.042068,269.915649 
	C136.771957,268.385284 137.000000,266.766998 137.000000,264.356262 
	C131.197647,268.218689 128.406555,272.415955 127.870529,278.702637 
	C126.990891,289.019440 125.521484,299.363281 120.010994,308.478455 
	C118.483223,311.005615 116.563148,313.772736 114.106194,315.161285 
	C109.056778,318.014954 104.123428,314.738678 103.988007,309.097321 
	C103.708458,297.452606 110.614983,288.754852 116.055588,279.456421 
	C119.233643,274.024902 125.064354,269.722931 122.831772,262.191223 
	C119.229446,264.007599 115.116928,262.704529 111.133873,262.738617 
	C105.286728,262.788574 97.783226,260.246460 92.613167,266.628174 
	C91.354820,268.181396 88.244781,268.838043 86.016991,268.777252 
	C84.669380,268.740448 82.437729,266.672363 82.228432,265.273743 
	C81.292679,259.020752 91.054993,250.035583 97.365623,251.058014 
	C98.351067,251.217667 99.234459,252.007172 100.347351,252.603058 
	C97.313652,254.534897 94.695274,256.202271 92.076904,257.869629 
	C92.154144,258.355713 92.231384,258.841797 92.308624,259.327881 
	C96.989677,256.428009 101.376381,256.007690 104.872108,260.094025 
	C106.686691,259.178345 108.135803,258.447083 109.639687,257.688171 
	C110.503914,250.394485 110.664238,250.194443 115.967079,250.306549 
	C115.967079,253.088959 115.967079,255.883224 115.967079,260.043884 
	C117.894150,258.505310 119.112633,257.785522 119.993874,256.772369 
	C121.488960,255.053574 122.578224,252.944061 124.218536,251.404037 
	C125.142159,250.536896 127.039757,249.871964 128.104691,250.243866 
	C129.025177,250.565338 129.786041,252.438828 129.916763,253.698944 
	C130.189499,256.327728 129.999313,259.004547 129.999313,262.026733 
	C134.669952,260.709259 136.842941,258.520569 137.154617,253.433502 
	C138.078995,238.345200 139.898651,223.316559 145.167923,209.003860 
	C145.755371,207.408127 148.142014,206.474762 150.415375,205.815765 
	C148.498367,222.163513 142.838364,237.414139 143.012695,254.053146 
	C147.468094,253.150452 150.229492,254.932297 152.837784,258.031036 
	C153.926086,259.323944 156.859787,259.584686 158.845505,259.358612 
	C159.705948,259.260620 160.559937,256.815643 160.947464,255.315491 
	C161.843887,251.845459 161.879166,247.702560 168.014267,249.388062 
	C167.790726,251.039932 167.551239,252.809616 167.251389,255.025406 
	C168.421356,254.649261 169.393188,254.114960 170.392334,254.057831 
	C173.220093,253.896088 175.894791,253.611465 174.159729,258.209198 
	C173.054886,261.136932 173.240311,264.551575 172.787430,268.233734 
	C178.640991,267.215485 181.348434,263.382660 184.132095,259.535889 
	C187.275024,255.192657 190.183640,250.297485 196.729691,251.054810 
	C197.950912,251.196075 199.092316,252.027161 200.396057,252.594513 
	C197.150543,254.692719 194.533707,256.384491 191.916870,258.076294 
	C192.154968,258.484375 192.393066,258.892456 192.631180,259.300537 
	C193.694763,258.770782 194.724854,257.894104 195.829285,257.787476 
	C197.794769,257.597687 200.152298,257.232697 201.726898,258.084778 
	C205.347977,260.044312 207.920761,260.870850 209.180099,255.709015 
	C209.363159,254.958664 212.028763,253.966583 212.216797,254.192474 
	C214.858398,257.365845 217.156448,255.268463 219.474594,253.903336 
	C223.248215,251.681122 226.069870,253.449707 228.571548,256.111145 
	C234.148163,262.043884 235.766968,262.331024 243.588638,259.131317 
	C245.145660,258.494385 247.052734,258.713135 250.120560,258.404175 
	C244.157196,265.351715 233.573013,266.933960 226.379471,262.869751 
M118.064217,296.605377 
	C119.187630,292.322449 120.311043,288.039520 121.434448,283.756622 
	C120.888618,283.600464 120.342781,283.444305 119.796944,283.288147 
	C115.009018,291.452332 111.744003,300.116608 110.994339,309.606812 
	C111.596352,309.836395 112.198357,310.066010 112.800362,310.295624 
	C114.534195,306.007385 116.268036,301.719177 118.064217,296.605377 
M144.994232,262.868317 
	C144.769043,262.232727 144.543869,261.597137 144.318680,260.961517 
	C143.265076,266.334351 142.039398,271.573090 144.999390,276.608490 
	C144.999390,272.338562 144.999390,268.068604 144.994232,262.868317 
z"/>
<path fill="#FFDE59" opacity="1.000000" stroke="none" 
	d="
M31.000002,275.839874 
	C31.000000,266.198181 31.000000,257.039185 31.000000,247.468674 
	C32.510189,247.208725 34.026306,246.947754 35.956589,246.615494 
	C35.956589,233.926071 35.956589,221.173508 35.956589,208.216156 
	C37.771553,208.216156 39.171120,208.216156 41.413147,208.216156 
	C41.413147,224.048798 41.413147,239.724747 41.413147,256.848541 
	C48.546627,255.319824 54.767273,254.522781 60.620789,252.605103 
	C69.137123,249.815048 76.590782,245.159988 82.489685,238.089203 
	C92.324493,226.300552 89.593079,211.661804 74.492874,205.431992 
	C58.220215,198.718475 41.934544,200.796234 26.942875,210.137054 
	C24.025412,211.954819 22.058008,215.297363 19.652384,217.936600 
	C19.851980,218.440201 20.051577,218.943787 20.251173,219.447388 
	C18.547300,218.803223 16.843430,218.159042 15.139561,217.514877 
	C16.450874,214.827606 17.057848,210.884232 19.201870,209.681992 
	C26.440359,205.623123 33.922089,201.232239 41.871979,199.390137 
	C53.343529,196.732040 65.297867,196.634842 76.706055,201.030334 
	C85.540390,204.434128 92.679909,209.290039 94.424072,219.723083 
	C95.642693,227.012436 93.727264,233.331314 89.537720,238.835327 
	C80.178093,251.131561 66.929375,256.624237 52.104275,259.024719 
	C50.524937,259.280457 48.996662,259.851532 47.339138,260.305237 
	C73.381897,271.178558 87.021973,279.046661 87.978485,285.046997 
	C72.547348,277.660889 57.838554,270.620514 42.287376,263.176941 
	C41.763435,266.071442 41.179043,268.166748 41.037716,270.291534 
	C40.600330,276.867432 40.530869,283.475586 39.841293,290.020905 
	C39.690491,291.452271 37.561359,292.675201 36.343323,293.994141 
	C35.209202,292.929626 33.328350,292.018066 33.073429,290.773468 
	C32.098682,286.014587 31.646990,281.148590 31.000002,275.839874 
z"/>
<path fill="#FFDE59" opacity="1.000000" stroke="none" 
	d="
M389.185150,249.424927 
	C389.028839,248.893814 389.047516,248.723602 389.011841,248.565628 
	C388.320526,245.504089 389.986328,243.783493 392.645050,243.417465 
	C393.241302,243.335388 394.971893,245.983719 394.848236,247.244431 
	C394.515564,250.636154 392.124237,250.964188 389.185150,249.424927 
z"/>
<path fill="#000000" opacity="1.000000" stroke="none" 
	d="
M246.002106,292.096375 
	C247.183456,285.723694 252.351044,283.393585 256.847137,281.237366 
	C262.897766,278.335663 269.537109,276.637085 275.979279,274.597534 
	C277.231018,274.201233 279.087158,274.082611 280.066925,274.734314 
	C284.947327,277.980682 285.333344,277.917877 286.469788,272.189026 
	C299.705902,269.986053 312.985992,267.775757 328.009033,265.275360 
	C325.844452,271.744141 325.037628,277.512482 322.212280,282.013885 
	C310.406281,300.823212 292.782043,309.469727 270.848785,307.748230 
	C261.623932,307.024200 252.266602,304.220825 246.799210,295.213074 
	C246.324875,294.431580 246.257263,293.403229 246.002106,292.096375 
z"/>
<path fill="#000000" opacity="1.000000" stroke="none" 
	d="
M324.022247,249.143463 
	C325.322083,253.414505 326.566742,257.301575 327.897217,261.456604 
	C314.531494,263.430359 302.295471,264.912476 290.215118,267.212067 
	C286.414490,267.935547 285.850281,267.024200 286.008667,263.932281 
	C286.327576,257.707092 286.865753,251.485077 286.930878,245.257751 
	C286.974335,241.100403 288.557617,238.240448 292.716248,238.243591 
	C299.405548,238.248657 306.154297,238.515427 312.764343,239.463440 
	C318.044647,240.220718 321.549286,244.062653 324.022247,249.143463 
z"/>
<path fill="#000000" opacity="1.000000" stroke="none" 
	d="
M456.878845,257.895569 
	C456.507538,258.307434 455.940643,258.534637 455.373718,258.761841 
	C455.528107,258.422089 455.682526,258.082336 456.058136,257.549042 
	C456.413940,257.473938 456.548584,257.592407 456.878845,257.895569 
z"/>
<path fill="#000000" opacity="1.000000" stroke="none" 
	d="
M350.878845,258.895569 
	C350.507568,259.307465 349.940643,259.534668 349.373718,259.761841 
	C349.528168,259.422119 349.682587,259.082367 350.058167,258.549042 
	C350.413940,258.473938 350.548584,258.592407 350.878845,258.895569 
z"/>
<path fill="#000000" opacity="1.000000" stroke="none" 
	d="
M118.033051,297.018158 
	C116.268036,301.719177 114.534195,306.007385 112.800362,310.295624 
	C112.198357,310.066010 111.596352,309.836395 110.994339,309.606812 
	C111.744003,300.116608 115.009018,291.452332 119.796944,283.288147 
	C120.342781,283.444305 120.888618,283.600464 121.434448,283.756622 
	C120.311043,288.039520 119.187630,292.322449 118.033051,297.018158 
z"/>
<path fill="#000000" opacity="1.000000" stroke="none" 
	d="
M144.996811,263.333496 
	C144.999390,268.068604 144.999390,272.338562 144.999390,276.608490 
	C142.039398,271.573090 143.265076,266.334351 144.318680,260.961517 
	C144.543869,261.597137 144.769043,262.232727 144.996811,263.333496 
z"/>
</svg>