<svg xmlns="http://www.w3.org/2000/svg" xmlns:xlink="http://www.w3.org/1999/xlink" width="3280" zoomAndPan="magnify" viewBox="0 0 2460 675.000002" height="900" preserveAspectRatio="xMidYMid meet" version="1.0"><defs><g/></defs><g fill="#ffde59" fill-opacity="1"><g transform="translate(77.053338, 442.594308)"><g><path d="M 35.234375 -60.265625 C 34.429688 -61.171875 33.753906 -58.425781 33.203125 -52.03125 C 32.660156 -45.632812 32.390625 -37.3125 32.390625 -27.0625 C 32.390625 -16.8125 32.535156 -6.414062 32.828125 4.125 C 33.128906 14.664062 33.726562 23.457031 34.625 30.5 C 35.53125 37.550781 36.632812 41.078125 37.9375 41.078125 C 38.832031 39.484375 39.328125 34.007812 39.421875 24.65625 C 39.523438 15.3125 39.398438 4.59375 39.046875 -7.5 C 38.703125 -19.59375 38.203125 -30.6875 37.546875 -40.78125 C 36.898438 -50.875 36.128906 -57.367188 35.234375 -60.265625 Z M 64.328125 -41.828125 C 63.921875 -32.734375 63.46875 -23.585938 62.96875 -14.390625 C 62.375 1.203125 61.625 16.796875 60.71875 32.390625 C 59.625 50.878906 58.175781 69.367188 56.375 87.859375 C 55.769531 92.953125 54.671875 97.898438 53.078125 102.703125 C 50.878906 110.796875 45.929688 114.84375 38.234375 114.84375 C 30.140625 115.144531 24.992188 111.296875 22.796875 103.296875 C 20.992188 95.203125 19.640625 86.957031 18.734375 78.5625 C 14.140625 28.488281 11.539062 -21.738281 10.9375 -72.125 C 10.644531 -88.8125 10.644531 -105.398438 10.9375 -121.890625 C 11.144531 -129.785156 15.296875 -133.4375 23.390625 -132.84375 C 29.585938 -132.644531 32.785156 -129.445312 32.984375 -123.25 C 33.179688 -116.445312 33.28125 -109.5 33.28125 -102.40625 C 33.28125 -97.40625 33.378906 -92.257812 33.578125 -86.96875 C 33.578125 -85.164062 33.929688 -83.3125 34.640625 -81.40625 C 34.835938 -80.707031 34.9375 -80.160156 34.9375 -79.765625 C 34.9375 -79.460938 35.0625 -79.3125 35.3125 -79.3125 C 35.5625 -79.3125 35.785156 -79.3125 35.984375 -79.3125 C 36.179688 -79.3125 36.378906 -79.3125 36.578125 -79.3125 C 36.785156 -79.3125 37.0625 -79.382812 37.40625 -79.53125 C 37.757812 -79.6875 38.035156 -79.863281 38.234375 -80.0625 C 38.234375 -80.664062 38.332031 -81.21875 38.53125 -81.71875 C 39.226562 -83.71875 39.675781 -85.566406 39.875 -87.265625 C 40.375 -100.054688 40.625 -112.800781 40.625 -125.5 C 40.625 -134.988281 40.726562 -144.484375 40.9375 -153.984375 C 41.132812 -181.472656 41.132812 -209.0625 40.9375 -236.75 C 40.726562 -254.332031 40.175781 -272.019531 39.28125 -289.8125 C 38.78125 -297.507812 38.429688 -305.304688 38.234375 -313.203125 C 38.234375 -314.804688 38.132812 -316.359375 37.9375 -317.859375 C 37.738281 -320.753906 37.640625 -323.601562 37.640625 -326.40625 C 38.035156 -336.300781 42.878906 -340.5 52.171875 -339 C 57.171875 -338.101562 60.117188 -335.101562 61.015625 -330 C 61.222656 -327.601562 61.578125 -325.207031 62.078125 -322.8125 C 62.867188 -316.40625 63.515625 -309.90625 64.015625 -303.3125 C 64.921875 -276.019531 65.375 -248.632812 65.375 -221.15625 C 65.375 -194.363281 65.222656 -167.570312 64.921875 -140.78125 C 64.921875 -128.6875 64.820312 -116.59375 64.625 -104.5 C 64.625 -103.601562 64.625 -102.703125 64.625 -101.796875 C 64.625 -97.597656 64.625 -93.398438 64.625 -89.203125 C 64.820312 -85.710938 65.59375 -83.363281 66.9375 -82.15625 C 68.289062 -80.957031 70.71875 -80.5625 74.21875 -80.96875 C 121.289062 -84.5625 166.019531 -96.554688 208.40625 -116.953125 C 232.195312 -128.441406 253.640625 -143.285156 272.734375 -161.484375 C 287.023438 -175.367188 297.644531 -189.410156 304.59375 -203.609375 C 311.539062 -217.804688 315.613281 -231.425781 316.8125 -244.46875 C 318.007812 -257.507812 317.304688 -269.675781 314.703125 -280.96875 C 310.109375 -300.257812 299.835938 -316.953125 283.890625 -331.046875 C 267.953125 -345.140625 248.085938 -356.082031 224.296875 -363.875 C 200.503906 -371.675781 174.585938 -375.75 146.546875 -376.09375 C 118.515625 -376.445312 90.207031 -372.628906 61.625 -364.640625 C 40.132812 -358.742188 19.492188 -350.492188 -0.296875 -339.890625 C -11.492188 -333.992188 -21.84375 -326.648438 -31.34375 -317.859375 C -35.738281 -313.859375 -39.484375 -309.554688 -42.578125 -304.953125 C -45.679688 -300.359375 -47.082031 -294.863281 -46.78125 -288.46875 C -46.78125 -286.269531 -47.550781 -284.617188 -49.09375 -283.515625 C -50.644531 -282.421875 -52.519531 -281.773438 -54.71875 -281.578125 C -57.125 -281.378906 -59.675781 -281.476562 -62.375 -281.875 C -67.164062 -282.96875 -69.914062 -286.066406 -70.625 -291.171875 C -70.820312 -296.171875 -69.71875 -301.117188 -67.3125 -306.015625 C -63.519531 -313.515625 -58.570312 -320.109375 -52.46875 -325.796875 C -45.375 -332.796875 -37.703125 -338.941406 -29.453125 -344.234375 C -21.210938 -349.535156 -12.59375 -354.285156 -3.59375 -358.484375 C 33.082031 -375.578125 71.664062 -386.125 112.15625 -390.125 C 129.34375 -391.820312 147.929688 -392.070312 167.921875 -390.875 C 187.910156 -389.675781 207.847656 -386.601562 227.734375 -381.65625 C 247.628906 -376.707031 266.097656 -369.507812 283.140625 -360.0625 C 300.191406 -350.613281 314.335938 -338.414062 325.578125 -323.46875 C 336.828125 -308.53125 343.75 -290.617188 346.34375 -269.734375 C 347.644531 -256.335938 346.769531 -243.363281 343.71875 -230.8125 C 340.664062 -218.269531 335.941406 -206.050781 329.546875 -194.15625 C 317.453125 -172.875 301.710938 -154.632812 282.328125 -139.4375 C 264.128906 -124.945312 244.734375 -112.800781 224.140625 -103 C 203.554688 -93.207031 182.066406 -85.210938 159.671875 -79.015625 C 138.785156 -73.316406 117.546875 -69.367188 95.953125 -67.171875 C 94.660156 -67.171875 93.363281 -67.070312 92.0625 -66.875 C 91.863281 -66.664062 91.515625 -66.5625 91.015625 -66.5625 C 90.109375 -66.5625 89.378906 -66.382812 88.828125 -66.03125 C 88.285156 -65.6875 87.910156 -65.066406 87.703125 -64.171875 C 87.304688 -62.171875 88.207031 -60.867188 90.40625 -60.265625 C 92.40625 -59.367188 94.351562 -58.570312 96.25 -57.875 C 97.851562 -57.269531 99.503906 -56.617188 101.203125 -55.921875 C 135.585938 -42.929688 169.097656 -28.085938 201.734375 -11.390625 C 234.367188 5.296875 266.28125 23.1875 297.46875 42.28125 C 301.46875 44.476562 305.113281 47.128906 308.40625 50.234375 C 309.113281 50.734375 309.566406 51.457031 309.765625 52.40625 C 309.960938 53.351562 310.0625 54.273438 310.0625 55.171875 C 309.863281 56.773438 309.3125 57.953125 308.40625 58.703125 C 307.507812 59.453125 306.410156 60.023438 305.109375 60.421875 C 299.816406 61.816406 294.96875 60.96875 290.5625 57.875 C 277.875 51.070312 265.03125 44.375 252.03125 37.78125 C 237.9375 30.082031 223.742188 22.488281 209.453125 15 C 188.566406 3.800781 167.351562 -6.59375 145.8125 -16.1875 C 124.269531 -25.789062 102.503906 -34.988281 80.515625 -43.78125 C 79.816406 -43.976562 79.164062 -44.28125 78.5625 -44.6875 C 76.5625 -45.582031 74.507812 -46.351562 72.40625 -47 C 70.3125 -47.65625 68.488281 -47.65625 66.9375 -47 C 65.394531 -46.351562 64.523438 -44.628906 64.328125 -41.828125 Z M 64.328125 -41.828125 "/></g></g><g transform="translate(381.122206, 442.594308)"><g><path d="M 137.34375 -75.421875 C 138.4375 -75.210938 139.179688 -74.882812 139.578125 -74.4375 C 139.984375 -73.988281 140.4375 -73.113281 140.9375 -71.8125 C 141.332031 -70.519531 140.878906 -68.972656 139.578125 -67.171875 C 138.285156 -65.367188 137.085938 -63.921875 135.984375 -62.828125 C 127.785156 -55.128906 118.191406 -50.53125 107.203125 -49.03125 C 100.898438 -48.125 94.597656 -47.894531 88.296875 -48.34375 C 82.003906 -48.800781 75.8125 -50.328125 69.71875 -52.921875 C 65.320312 -55.117188 61.222656 -54.472656 57.421875 -50.984375 C 49.523438 -43.785156 41.28125 -36.882812 32.6875 -30.28125 C 28.289062 -26.988281 23.664062 -24.238281 18.8125 -22.03125 C 13.96875 -19.832031 8.695312 -18.585938 3 -18.296875 C -13.695312 -18.585938 -20.296875 -26.734375 -16.796875 -42.734375 C -16.597656 -43.429688 -16.347656 -43.976562 -16.046875 -44.375 C -11.242188 -57.375 -4.894531 -69.09375 3 -79.53125 C 10.894531 -89.976562 20.890625 -98.703125 32.984375 -105.703125 C 40.984375 -110.398438 49.582031 -112.195312 58.78125 -111.09375 C 61.175781 -110.59375 63.472656 -109.695312 65.671875 -108.40625 C 68.367188 -107.101562 69.46875 -105.003906 68.96875 -102.109375 C 68.769531 -101.203125 68.34375 -100.425781 67.6875 -99.78125 C 67.039062 -99.132812 66.367188 -98.507812 65.671875 -97.90625 C 65.273438 -97.40625 64.75 -97.054688 64.09375 -96.859375 C 63.445312 -96.660156 62.773438 -96.5625 62.078125 -96.5625 C 55.472656 -96.351562 49.796875 -94.425781 45.046875 -90.78125 C 40.304688 -87.132812 35.984375 -83.015625 32.078125 -78.421875 C 27.679688 -73.515625 23.609375 -68.113281 19.859375 -62.21875 C 16.117188 -56.320312 13.046875 -49.273438 10.640625 -41.078125 C 19.441406 -46.179688 26.34375 -51.226562 31.34375 -56.21875 C 32.4375 -57.320312 33.535156 -58.320312 34.640625 -59.21875 C 35.535156 -60.125 36.429688 -60.925781 37.328125 -61.625 C 41.734375 -65.71875 46.332031 -69.316406 51.125 -72.421875 C 56.625 -75.515625 62.070312 -77.0625 67.46875 -77.0625 C 72.863281 -77.0625 78.113281 -74.863281 83.21875 -70.46875 C 90.207031 -64.269531 97 -61.84375 103.59375 -63.1875 C 110.195312 -64.539062 116.347656 -66.867188 122.046875 -70.171875 C 127.835938 -73.671875 132.9375 -75.421875 137.34375 -75.421875 Z M 137.34375 -75.421875 "/></g></g><g transform="translate(508.117438, 442.594308)"><g><path d="M 160.28125 -76.015625 C 162.28125 -75.617188 163.65625 -74.421875 164.40625 -72.421875 C 165.15625 -70.421875 164.878906 -68.671875 163.578125 -67.171875 C 154.578125 -57.671875 144.78125 -48.523438 134.1875 -39.734375 C 124.289062 -31.234375 114.492188 -22.238281 104.796875 -12.75 C 99.097656 -6.550781 95.800781 0.695312 94.90625 9 C 94.707031 10.289062 94.609375 11.640625 94.609375 13.046875 C 92.210938 34.535156 88.988281 57.875 84.9375 83.0625 C 80.882812 108.25 74.882812 132.5625 66.9375 156 C 59 179.445312 48.234375 199.265625 34.640625 215.453125 C 30.234375 220.546875 25.28125 224.414062 19.78125 227.0625 C 14.289062 229.71875 8 230.796875 0.90625 230.296875 C -14.1875 228.796875 -24.054688 223.144531 -28.703125 213.34375 C -33.359375 203.550781 -34.132812 191.082031 -31.03125 175.9375 C -27.9375 160.800781 -22.488281 144.535156 -14.6875 127.140625 C -6.894531 109.753906 1.847656 92.8125 11.546875 76.3125 C 21.242188 59.820312 30.363281 45.351562 38.90625 32.90625 C 47.457031 20.46875 54.179688 11.5 59.078125 6 C 66.773438 -2.300781 70.820312 -11.847656 71.21875 -22.640625 C 71.613281 -27.035156 71.960938 -31.429688 72.265625 -35.828125 C 73.066406 -43.722656 73.617188 -52.519531 73.921875 -62.21875 C 70.816406 -60.019531 68.066406 -58.171875 65.671875 -56.671875 C 61.671875 -53.773438 58.019531 -51.328125 54.71875 -49.328125 C 45.03125 -43.628906 34.585938 -41.976562 23.390625 -44.375 C 14.992188 -46.78125 8.992188 -51.554688 5.390625 -58.703125 C 1.796875 -65.847656 0.046875 -73.816406 0.140625 -82.609375 C 0.242188 -91.410156 1.847656 -99.257812 4.953125 -106.15625 C 6.953125 -110.550781 10.195312 -113.347656 14.6875 -114.546875 C 19.1875 -115.742188 23.535156 -115.144531 27.734375 -112.75 C 28.335938 -112.25 28.910156 -111.5 29.453125 -110.5 C 30.003906 -109.5 30.179688 -108.597656 29.984375 -107.796875 C 29.785156 -105.597656 29.238281 -103.398438 28.34375 -101.203125 C 27.9375 -99.804688 27.582031 -98.359375 27.28125 -96.859375 C 24.882812 -86.765625 25.585938 -76.769531 29.390625 -66.875 C 31.785156 -60.675781 35.734375 -59.675781 41.234375 -63.875 C 50.429688 -71.769531 58.226562 -80.914062 64.625 -91.3125 C 66.625 -94.3125 68.375 -97.359375 69.875 -100.453125 C 70.769531 -101.753906 71.566406 -103.101562 72.265625 -104.5 C 76.660156 -111.101562 82.707031 -113.953125 90.40625 -113.046875 C 98.90625 -112.546875 103.15625 -108.148438 103.15625 -99.859375 C 102.957031 -88.359375 102.554688 -77.015625 101.953125 -65.828125 C 101.648438 -60.523438 101.398438 -55.273438 101.203125 -50.078125 C 100.804688 -45.679688 101.207031 -43.03125 102.40625 -42.125 C 103.601562 -41.226562 106.050781 -42.328125 109.75 -45.421875 C 112.25 -47.421875 114.695312 -49.375 117.09375 -51.28125 C 125.6875 -58.175781 134.132812 -65.019531 142.4375 -71.8125 C 147.9375 -76.21875 153.882812 -77.617188 160.28125 -76.015625 Z M 13.5 204.359375 C 22.09375 193.765625 30.0625 178.296875 37.40625 157.953125 C 44.75 137.609375 50.796875 116.539062 55.546875 94.75 C 60.296875 72.96875 62.867188 54.726562 63.265625 40.03125 C 59.773438 40.726562 55.65625 44.75 50.90625 52.09375 C 46.15625 59.445312 41.15625 68.796875 35.90625 80.140625 C 30.65625 91.484375 25.484375 103.300781 20.390625 115.59375 C 19.492188 117.789062 17.617188 123.390625 14.765625 132.390625 C 11.921875 141.390625 9.023438 151.5625 6.078125 162.90625 C 3.128906 174.25 0.929688 184.539062 -0.515625 193.78125 C -1.972656 203.03125 -1.753906 209.078125 0.140625 211.921875 C 2.046875 214.773438 6.5 212.253906 13.5 204.359375 Z M 13.5 204.359375 "/></g></g><g transform="translate(653.554716, 442.594308)"><g><path d="M 128.640625 -70.765625 C 134.535156 -75.367188 138.757812 -76.796875 141.3125 -75.046875 C 143.863281 -73.296875 143.390625 -69.019531 139.890625 -62.21875 C 133.285156 -52.125 123.710938 -45.648438 111.171875 -42.796875 C 98.628906 -39.953125 87.3125 -41.476562 77.21875 -47.375 C 73.71875 -49.570312 71.289062 -50.570312 69.9375 -50.375 C 68.59375 -50.175781 67.867188 -49.125 67.765625 -47.21875 C 67.671875 -45.320312 67.820312 -43.078125 68.21875 -40.484375 C 68.21875 -39.984375 68.367188 -39.429688 68.671875 -38.828125 C 69.765625 -28.734375 70.632812 -17.238281 71.28125 -4.34375 C 71.9375 8.550781 71.664062 21.316406 70.46875 33.953125 C 69.269531 46.597656 66.671875 57.617188 62.671875 67.015625 C 59.578125 73.617188 54.953125 78.019531 48.796875 80.21875 C 42.648438 82.414062 36.550781 82.539062 30.5 80.59375 C 24.457031 78.644531 19.6875 74.671875 16.1875 68.671875 C 13.09375 62.972656 10.644531 57.078125 8.84375 50.984375 C 5.539062 38.378906 3.140625 25.601562 1.640625 12.65625 C 0.148438 -0.28125 -0.84375 -13.34375 -1.34375 -26.53125 C -2.25 -55.425781 -0.925781 -89.265625 2.625 -128.046875 C 6.175781 -166.828125 11.625 -205.304688 18.96875 -243.484375 C 26.3125 -281.671875 35.28125 -314.160156 45.875 -340.953125 C 49.175781 -348.242188 54.773438 -351.191406 62.671875 -349.796875 C 68.171875 -348.992188 70.820312 -346.046875 70.625 -340.953125 C 67.519531 -327.953125 64.21875 -314.554688 60.71875 -300.765625 C 53.226562 -272.179688 46.179688 -242.09375 39.578125 -210.5 C 32.984375 -178.914062 28.585938 -146.179688 26.390625 -112.296875 C 24.890625 -90.304688 24.1875 -68.316406 24.28125 -46.328125 C 24.382812 -24.335938 25.988281 -2.5 29.09375 19.1875 C 29.289062 22.789062 29.765625 27.265625 30.515625 32.609375 C 31.265625 37.953125 32.238281 43.046875 33.4375 47.890625 C 34.632812 52.742188 35.859375 56.21875 37.109375 58.3125 C 38.359375 60.414062 39.582031 60.039062 40.78125 57.1875 C 41.976562 54.34375 43.03125 47.875 43.9375 37.78125 C 44.332031 24.582031 44.476562 11.265625 44.375 -2.171875 C 44.28125 -15.617188 43.332031 -29.039062 41.53125 -42.4375 C 40.925781 -48.332031 40.273438 -54.378906 39.578125 -60.578125 C 38.878906 -66.472656 38.128906 -72.421875 37.328125 -78.421875 C 36.828125 -81.515625 36.851562 -84.3125 37.40625 -86.8125 C 37.957031 -89.3125 39.78125 -91.460938 42.875 -93.265625 C 50.375 -96.359375 56.875 -95.359375 62.375 -90.265625 C 63.675781 -89.160156 64.773438 -87.859375 65.671875 -86.359375 C 65.671875 -86.054688 65.769531 -85.804688 65.96875 -85.609375 C 75.46875 -72.015625 85.085938 -63.566406 94.828125 -60.265625 C 104.578125 -56.972656 115.847656 -60.472656 128.640625 -70.765625 Z M 128.640625 -70.765625 "/></g></g><g transform="translate(782.798978, 442.594308)"><g><path d="M 133.296875 -70.765625 C 136.992188 -74.566406 140.265625 -76.066406 143.109375 -75.265625 C 145.960938 -74.460938 147.738281 -72.363281 148.4375 -68.96875 C 149.132812 -65.570312 148.132812 -61.773438 145.4375 -57.578125 C 139.9375 -49.472656 132.1875 -40.75 122.1875 -31.40625 C 112.195312 -22.0625 101.425781 -13.914062 89.875 -6.96875 C 78.332031 -0.0195312 67.414062 3.75 57.125 4.34375 C 36.226562 5.445312 26.429688 -4.546875 27.734375 -25.640625 C 27.929688 -28.441406 28.484375 -32.191406 29.390625 -36.890625 C 30.285156 -41.484375 31.007812 -45.925781 31.5625 -50.21875 C 32.113281 -54.519531 31.835938 -57.421875 30.734375 -58.921875 C 29.335938 -60.222656 27.765625 -60.875 26.015625 -60.875 C 24.265625 -60.875 22.390625 -60.671875 20.390625 -60.265625 C 18.191406 -59.765625 16.144531 -59.664062 14.25 -59.96875 C 4.050781 -61.070312 -1.25 -66.320312 -1.65625 -75.71875 C -1.851562 -88.707031 0.546875 -101.148438 5.546875 -113.046875 C 7.148438 -116.742188 10.148438 -119.191406 14.546875 -120.390625 C 18.941406 -121.585938 22.988281 -121.085938 26.6875 -118.890625 C 29.082031 -117.390625 30.179688 -115.34375 29.984375 -112.75 C 29.585938 -109.15625 28.9375 -105.609375 28.03125 -102.109375 C 27.632812 -100.609375 27.285156 -99.054688 26.984375 -97.453125 C 25.085938 -88.253906 25.113281 -83.476562 27.0625 -83.125 C 29.007812 -82.78125 33.28125 -85.257812 39.875 -90.5625 C 44.78125 -94.0625 50.179688 -95.507812 56.078125 -94.90625 C 63.972656 -94.207031 67.171875 -89.8125 65.671875 -81.71875 C 64.367188 -76.21875 63.019531 -70.617188 61.625 -64.921875 C 58.625 -53.222656 56.320312 -41.425781 54.71875 -29.53125 C 54.125 -21.4375 55.578125 -16.710938 59.078125 -15.359375 C 62.578125 -14.015625 67.25 -14.84375 73.09375 -17.84375 C 78.9375 -20.84375 85.082031 -24.863281 91.53125 -29.90625 C 97.976562 -34.957031 103.675781 -39.90625 108.625 -44.75 C 113.570312 -49.601562 116.945312 -53.128906 118.75 -55.328125 C 119.644531 -56.421875 121.015625 -57.941406 122.859375 -59.890625 C 124.710938 -61.847656 126.640625 -63.828125 128.640625 -65.828125 C 130.835938 -68.023438 132.390625 -69.671875 133.296875 -70.765625 Z M 133.296875 -70.765625 "/></g></g><g transform="translate(912.193176, 442.594308)"><g><path d="M 137.34375 -75.421875 C 138.4375 -75.210938 139.179688 -74.882812 139.578125 -74.4375 C 139.984375 -73.988281 140.4375 -73.113281 140.9375 -71.8125 C 141.332031 -70.519531 140.878906 -68.972656 139.578125 -67.171875 C 138.285156 -65.367188 137.085938 -63.921875 135.984375 -62.828125 C 127.785156 -55.128906 118.191406 -50.53125 107.203125 -49.03125 C 100.898438 -48.125 94.597656 -47.894531 88.296875 -48.34375 C 82.003906 -48.800781 75.8125 -50.328125 69.71875 -52.921875 C 65.320312 -55.117188 61.222656 -54.472656 57.421875 -50.984375 C 49.523438 -43.785156 41.28125 -36.882812 32.6875 -30.28125 C 28.289062 -26.988281 23.664062 -24.238281 18.8125 -22.03125 C 13.96875 -19.832031 8.695312 -18.585938 3 -18.296875 C -13.695312 -18.585938 -20.296875 -26.734375 -16.796875 -42.734375 C -16.597656 -43.429688 -16.347656 -43.976562 -16.046875 -44.375 C -11.242188 -57.375 -4.894531 -69.09375 3 -79.53125 C 10.894531 -89.976562 20.890625 -98.703125 32.984375 -105.703125 C 40.984375 -110.398438 49.582031 -112.195312 58.78125 -111.09375 C 61.175781 -110.59375 63.472656 -109.695312 65.671875 -108.40625 C 68.367188 -107.101562 69.46875 -105.003906 68.96875 -102.109375 C 68.769531 -101.203125 68.34375 -100.425781 67.6875 -99.78125 C 67.039062 -99.132812 66.367188 -98.507812 65.671875 -97.90625 C 65.273438 -97.40625 64.75 -97.054688 64.09375 -96.859375 C 63.445312 -96.660156 62.773438 -96.5625 62.078125 -96.5625 C 55.472656 -96.351562 49.796875 -94.425781 45.046875 -90.78125 C 40.304688 -87.132812 35.984375 -83.015625 32.078125 -78.421875 C 27.679688 -73.515625 23.609375 -68.113281 19.859375 -62.21875 C 16.117188 -56.320312 13.046875 -49.273438 10.640625 -41.078125 C 19.441406 -46.179688 26.34375 -51.226562 31.34375 -56.21875 C 32.4375 -57.320312 33.535156 -58.320312 34.640625 -59.21875 C 35.535156 -60.125 36.429688 -60.925781 37.328125 -61.625 C 41.734375 -65.71875 46.332031 -69.316406 51.125 -72.421875 C 56.625 -75.515625 62.070312 -77.0625 67.46875 -77.0625 C 72.863281 -77.0625 78.113281 -74.863281 83.21875 -70.46875 C 90.207031 -64.269531 97 -61.84375 103.59375 -63.1875 C 110.195312 -64.539062 116.347656 -66.867188 122.046875 -70.171875 C 127.835938 -73.671875 132.9375 -75.421875 137.34375 -75.421875 Z M 137.34375 -75.421875 "/></g></g><g transform="translate(1039.188408, 442.594308)"><g><path d="M 197.90625 -70.46875 C 197.90625 -70.46875 198.007812 -70.46875 198.21875 -70.46875 C 199.3125 -70.269531 200.40625 -69.894531 201.5 -69.34375 C 202.601562 -68.789062 203.304688 -67.71875 203.609375 -66.125 C 204.210938 -63.320312 203.410156 -61.117188 201.203125 -59.515625 C 192.210938 -53.222656 182.566406 -48.28125 172.265625 -44.6875 C 162.972656 -41.6875 153.601562 -39.785156 144.15625 -38.984375 C 134.707031 -38.179688 125.140625 -38.226562 115.453125 -39.125 C 102.953125 -40.425781 92.851562 -46.375 85.15625 -56.96875 C 82.757812 -60.269531 80.3125 -63.570312 77.8125 -66.875 C 75.414062 -70.164062 72.914062 -73.5625 70.3125 -77.0625 C 68.113281 -79.957031 65.367188 -80.304688 62.078125 -78.109375 C 58.078125 -75.210938 54.476562 -71.941406 51.28125 -68.296875 C 48.082031 -64.648438 45.082031 -60.875 42.28125 -56.96875 C 42.082031 -56.46875 41.832031 -56.019531 41.53125 -55.625 C 40.425781 -54.320312 39.328125 -52.875 38.234375 -51.28125 C 36.929688 -48.875 35.429688 -46.675781 33.734375 -44.6875 C 30.835938 -41.382812 27.085938 -39.257812 22.484375 -38.3125 C 17.890625 -37.363281 13.492188 -37.738281 9.296875 -39.4375 C 6.191406 -41.03125 4.191406 -43.328125 3.296875 -46.328125 C 0.492188 -57.617188 -1.253906 -68.960938 -1.953125 -80.359375 C -1.953125 -86.554688 0.894531 -90.207031 6.59375 -91.3125 C 13.195312 -92.8125 17.945312 -90.710938 20.84375 -85.015625 C 21.238281 -84.109375 21.535156 -83.007812 21.734375 -81.71875 C 22.035156 -80.414062 22.460938 -79.140625 23.015625 -77.890625 C 23.566406 -76.640625 24.59375 -75.613281 26.09375 -74.8125 C 27.882812 -76.3125 29.53125 -77.710938 31.03125 -79.015625 C 34.53125 -82.109375 37.929688 -85.109375 41.234375 -88.015625 C 45.234375 -91.304688 49.429688 -93.648438 53.828125 -95.046875 C 58.222656 -96.453125 62.921875 -97.15625 67.921875 -97.15625 C 79.617188 -97.15625 88.863281 -92.554688 95.65625 -83.359375 C 96.957031 -81.359375 98.304688 -79.460938 99.703125 -77.671875 C 102.703125 -73.066406 105.851562 -68.664062 109.15625 -64.46875 C 114.445312 -57.675781 121.492188 -54.175781 130.296875 -53.96875 C 139.285156 -53.570312 147.90625 -54.394531 156.15625 -56.4375 C 164.40625 -58.488281 172.375 -61.617188 180.0625 -65.828125 C 180.363281 -66.023438 180.71875 -66.269531 181.125 -66.5625 C 183.71875 -68.0625 186.390625 -69.257812 189.140625 -70.15625 C 191.890625 -71.0625 194.8125 -71.164062 197.90625 -70.46875 Z M 197.90625 -70.46875 "/></g></g><g transform="translate(1224.208615, 442.594308)"><g/></g><g transform="translate(1342.807468, 442.594308)"><g><path d="M 418.390625 -75.109375 C 419.835938 -73.117188 419.785156 -70.472656 418.234375 -67.171875 C 416.679688 -63.867188 410.582031 -59.84375 399.9375 -55.09375 C 389.300781 -50.351562 377.132812 -46.132812 363.4375 -42.4375 C 361.039062 -42.03125 358.539062 -41.578125 355.9375 -41.078125 C 350.84375 -40.484375 348.09375 -37.632812 347.6875 -32.53125 C 346.394531 -21.738281 344.648438 -11.09375 342.453125 -0.59375 C 334.253906 37.082031 317.609375 70.515625 292.515625 99.703125 C 264.828125 131.585938 232.140625 156.875 194.453125 175.5625 C 156.773438 194.257812 116.921875 205.304688 74.890625 208.703125 C 32.859375 212.097656 -8.242188 207.203125 -48.421875 194.015625 C -68.710938 187.421875 -87.40625 177.972656 -104.5 165.671875 C -114.195312 158.878906 -122.441406 150.882812 -129.234375 141.6875 C -142.734375 122.5 -143.632812 102.707031 -131.9375 82.3125 C -124.445312 69.519531 -113.550781 58.273438 -99.25 48.578125 C -84.957031 38.878906 -68.914062 30.53125 -51.125 23.53125 C -33.332031 16.539062 -15.316406 10.570312 2.921875 5.625 C 21.160156 0.675781 38.128906 -3.695312 53.828125 -7.5 C 58.617188 -8.800781 63.316406 -10 67.921875 -11.09375 C 72.816406 -12.394531 75.363281 -15.59375 75.5625 -20.6875 C 75.5625 -21.789062 75.660156 -22.890625 75.859375 -23.984375 C 75.859375 -25.484375 75.859375 -26.882812 75.859375 -28.1875 C 76.066406 -32.382812 76.269531 -36.582031 76.46875 -40.78125 C 78.0625 -81.664062 79.40625 -122.625 80.5 -163.65625 C 81.601562 -204.6875 81.609375 -245.640625 80.515625 -286.515625 C 80.316406 -294.410156 79.765625 -302.3125 78.859375 -310.21875 C 78.359375 -314.414062 77.910156 -318.613281 77.515625 -322.8125 C 76.816406 -329.601562 79.015625 -333.648438 84.109375 -334.953125 C 92.910156 -336.953125 98.507812 -334.203125 100.90625 -326.703125 C 102.5 -320.609375 103.5 -314.363281 103.90625 -307.96875 C 106.300781 -281.976562 107.398438 -255.9375 107.203125 -229.84375 C 107.203125 -227.644531 107.300781 -225.445312 107.5 -223.25 C 107.5 -222.351562 107.5 -221.550781 107.5 -220.84375 C 108.800781 -219.945312 109.953125 -219.625 110.953125 -219.875 C 111.953125 -220.125 112.800781 -220.550781 113.5 -221.15625 C 128.6875 -236.34375 143.300781 -251.90625 157.34375 -267.84375 C 171.394531 -283.789062 184.46875 -300.8125 196.5625 -318.90625 C 206.65625 -333.601562 214.453125 -349.546875 219.953125 -366.734375 C 221.953125 -374.128906 222.953125 -381.675781 222.953125 -389.375 C 222.546875 -403.46875 217.671875 -413.535156 208.328125 -419.578125 C 198.984375 -425.628906 187.113281 -428.828125 172.71875 -429.171875 C 158.320312 -429.523438 143.203125 -428.050781 127.359375 -424.75 C 111.523438 -421.457031 96.882812 -417.4375 83.4375 -412.6875 C 69.988281 -407.9375 59.664062 -403.613281 52.46875 -399.71875 C 43.175781 -394.820312 34.832031 -388.875 27.4375 -381.875 C 27.132812 -381.675781 26.882812 -381.425781 26.6875 -381.125 C 24.289062 -379.226562 22.441406 -377.054688 21.140625 -374.609375 C 19.835938 -372.160156 20.035156 -369.1875 21.734375 -365.6875 C 22.234375 -364.382812 21.984375 -363.234375 20.984375 -362.234375 C 19.984375 -361.234375 18.9375 -360.535156 17.84375 -360.140625 C 14.738281 -359.035156 11.539062 -358.484375 8.25 -358.484375 C 2.75 -357.984375 -1.648438 -360.035156 -4.953125 -364.640625 C -6.453125 -367.140625 -6.828125 -369.535156 -6.078125 -371.828125 C -5.328125 -374.128906 -4.203125 -376.28125 -2.703125 -378.28125 C -2.703125 -378.476562 -2.550781 -378.578125 -2.25 -378.578125 C 1.050781 -383.878906 4.945312 -388.503906 9.4375 -392.453125 C 13.9375 -396.398438 18.835938 -400.019531 24.140625 -403.3125 C 47.234375 -418.507812 73.222656 -429.40625 102.109375 -436 C 130.992188 -442.601562 159.179688 -444.804688 186.671875 -442.609375 C 198.359375 -441.503906 209.351562 -438.40625 219.65625 -433.3125 C 241.445312 -422.113281 250.890625 -404.320312 247.984375 -379.9375 C 245.785156 -365.84375 241.539062 -352.492188 235.25 -339.890625 C 224.25 -318.203125 210.90625 -298.015625 195.21875 -279.328125 C 175.71875 -255.535156 155.078125 -232.84375 133.296875 -211.25 C 125.398438 -203.351562 121.648438 -198.628906 122.046875 -197.078125 C 122.441406 -195.535156 126.488281 -195.210938 134.1875 -196.109375 C 135.789062 -196.109375 137.59375 -196.207031 139.59375 -196.40625 C 156.675781 -197.507812 174.238281 -198.0625 192.28125 -198.0625 C 210.332031 -198.0625 227.828125 -196.3125 244.765625 -192.8125 C 261.703125 -189.3125 277.269531 -182.988281 291.46875 -173.84375 C 305.664062 -164.695312 317.5625 -151.476562 327.15625 -134.1875 C 337.550781 -114.800781 344.046875 -94.210938 346.640625 -72.421875 C 346.835938 -71.117188 346.9375 -69.816406 346.9375 -68.515625 C 347.644531 -62.316406 351.570312 -59.441406 358.71875 -59.890625 C 365.863281 -60.347656 374.28125 -62.125 383.96875 -65.21875 C 393.664062 -68.320312 401.460938 -71.242188 407.359375 -73.984375 C 413.265625 -76.734375 416.941406 -77.109375 418.390625 -75.109375 Z M 320.5625 -30.59375 C 320.851562 -32.082031 320.550781 -33.273438 319.65625 -34.171875 C 318.757812 -35.078125 317.5625 -35.53125 316.0625 -35.53125 C 307.664062 -34.632812 299.269531 -33.734375 290.875 -32.828125 C 289.769531 -32.628906 288.671875 -32.429688 287.578125 -32.234375 C 247.585938 -27.140625 208.550781 -20.84375 170.46875 -13.34375 C 148.976562 -9.445312 127.140625 -5.75 104.953125 -2.25 C 98.753906 -1.144531 95.851562 2.398438 96.25 8.390625 C 96.050781 10.992188 95.753906 13.492188 95.359375 15.890625 C 94.460938 19.191406 92.265625 21.289062 88.765625 22.1875 C 84.960938 23.488281 81.210938 23.390625 77.515625 21.890625 C 75.710938 20.992188 74.609375 19.894531 74.203125 18.59375 C 73.804688 17.289062 73.460938 15.84375 73.171875 14.25 C 73.171875 13.644531 73.070312 12.992188 72.875 12.296875 C 72.46875 9.691406 71.765625 7.988281 70.765625 7.1875 C 69.765625 6.394531 68.066406 6.25 65.671875 6.75 C 57.273438 8.050781 46.050781 10.523438 32 14.171875 C 17.957031 17.816406 2.742188 22.488281 -13.640625 28.1875 C -30.035156 33.882812 -45.78125 40.582031 -60.875 48.28125 C -75.96875 55.976562 -88.460938 64.597656 -98.359375 74.140625 C -108.253906 83.679688 -113.847656 94.023438 -115.140625 105.171875 C -116.441406 116.316406 -111.597656 128.238281 -100.609375 140.9375 C -91.109375 151.53125 -80.007812 160.023438 -67.3125 166.421875 C -30.332031 185.117188 8.171875 194.390625 48.203125 194.234375 C 88.234375 194.085938 126.765625 185.890625 163.796875 169.640625 C 200.835938 153.398438 233.300781 130.4375 261.1875 100.75 C 288.96875 71.46875 307.359375 37.035156 316.359375 -2.546875 C 318.054688 -10.847656 319.351562 -19.394531 320.25 -28.1875 C 320.25 -29.082031 320.351562 -29.882812 320.5625 -30.59375 Z M 312.015625 -51.28125 C 316.003906 -51.78125 318.648438 -52.726562 319.953125 -54.125 C 321.253906 -55.519531 321.707031 -58.21875 321.3125 -62.21875 C 320.007812 -80.707031 315.8125 -98.648438 308.71875 -116.046875 C 300.414062 -135.535156 289.390625 -150.300781 275.640625 -160.34375 C 261.898438 -170.394531 246.429688 -176.992188 229.234375 -180.140625 C 212.046875 -183.296875 194.179688 -184.5 175.640625 -183.75 C 157.097656 -183 138.882812 -181.625 121 -179.625 C 118.394531 -179.414062 115.796875 -179.113281 113.203125 -178.71875 C 109.398438 -178.21875 107 -176.71875 106 -174.21875 C 105 -171.71875 104.648438 -168.820312 104.953125 -165.53125 C 104.953125 -165.03125 104.953125 -164.675781 104.953125 -164.46875 C 104.253906 -127.488281 102.351562 -88.660156 99.25 -47.984375 C 99.25 -47.578125 99.25 -46.925781 99.25 -46.03125 C 99.25 -43.226562 99.25 -39.476562 99.25 -34.78125 C 98.65625 -26.488281 99.234375 -21.613281 100.984375 -20.15625 C 102.734375 -18.707031 107.65625 -18.984375 115.75 -20.984375 C 124.738281 -22.484375 133.632812 -24.132812 142.4375 -25.9375 C 170.425781 -31.238281 198.613281 -35.835938 227 -39.734375 C 255.28125 -43.523438 283.617188 -47.375 312.015625 -51.28125 Z M 312.015625 -51.28125 "/></g></g><g transform="translate(1752.130941, 442.594308)"><g><path d="M 137.34375 -75.421875 C 138.4375 -75.210938 139.179688 -74.882812 139.578125 -74.4375 C 139.984375 -73.988281 140.4375 -73.113281 140.9375 -71.8125 C 141.332031 -70.519531 140.878906 -68.972656 139.578125 -67.171875 C 138.285156 -65.367188 137.085938 -63.921875 135.984375 -62.828125 C 127.785156 -55.128906 118.191406 -50.53125 107.203125 -49.03125 C 100.898438 -48.125 94.597656 -47.894531 88.296875 -48.34375 C 82.003906 -48.800781 75.8125 -50.328125 69.71875 -52.921875 C 65.320312 -55.117188 61.222656 -54.472656 57.421875 -50.984375 C 49.523438 -43.785156 41.28125 -36.882812 32.6875 -30.28125 C 28.289062 -26.988281 23.664062 -24.238281 18.8125 -22.03125 C 13.96875 -19.832031 8.695312 -18.585938 3 -18.296875 C -13.695312 -18.585938 -20.296875 -26.734375 -16.796875 -42.734375 C -16.597656 -43.429688 -16.347656 -43.976562 -16.046875 -44.375 C -11.242188 -57.375 -4.894531 -69.09375 3 -79.53125 C 10.894531 -89.976562 20.890625 -98.703125 32.984375 -105.703125 C 40.984375 -110.398438 49.582031 -112.195312 58.78125 -111.09375 C 61.175781 -110.59375 63.472656 -109.695312 65.671875 -108.40625 C 68.367188 -107.101562 69.46875 -105.003906 68.96875 -102.109375 C 68.769531 -101.203125 68.34375 -100.425781 67.6875 -99.78125 C 67.039062 -99.132812 66.367188 -98.507812 65.671875 -97.90625 C 65.273438 -97.40625 64.75 -97.054688 64.09375 -96.859375 C 63.445312 -96.660156 62.773438 -96.5625 62.078125 -96.5625 C 55.472656 -96.351562 49.796875 -94.425781 45.046875 -90.78125 C 40.304688 -87.132812 35.984375 -83.015625 32.078125 -78.421875 C 27.679688 -73.515625 23.609375 -68.113281 19.859375 -62.21875 C 16.117188 -56.320312 13.046875 -49.273438 10.640625 -41.078125 C 19.441406 -46.179688 26.34375 -51.226562 31.34375 -56.21875 C 32.4375 -57.320312 33.535156 -58.320312 34.640625 -59.21875 C 35.535156 -60.125 36.429688 -60.925781 37.328125 -61.625 C 41.734375 -65.71875 46.332031 -69.316406 51.125 -72.421875 C 56.625 -75.515625 62.070312 -77.0625 67.46875 -77.0625 C 72.863281 -77.0625 78.113281 -74.863281 83.21875 -70.46875 C 90.207031 -64.269531 97 -61.84375 103.59375 -63.1875 C 110.195312 -64.539062 116.347656 -66.867188 122.046875 -70.171875 C 127.835938 -73.671875 132.9375 -75.421875 137.34375 -75.421875 Z M 137.34375 -75.421875 "/></g></g><g transform="translate(1879.126173, 442.594308)"><g><path d="M 118.75 -74.0625 C 120.945312 -75.863281 122.59375 -76.488281 123.6875 -75.9375 C 124.789062 -75.382812 125.566406 -74.285156 126.015625 -72.640625 C 126.460938 -70.992188 126.6875 -69.367188 126.6875 -67.765625 C 126.488281 -64.765625 125.890625 -61.890625 124.890625 -59.140625 C 123.890625 -56.398438 123.191406 -54.578125 122.796875 -53.671875 C 122.492188 -53.472656 122.34375 -53.375 122.34375 -53.375 C 119.34375 -45.675781 114.59375 -38.078125 108.09375 -30.578125 C 101.601562 -23.085938 93.957031 -17.039062 85.15625 -12.4375 C 76.363281 -7.84375 67.019531 -5.847656 57.125 -6.453125 C 43.226562 -8.046875 32.15625 -13.390625 23.90625 -22.484375 C 15.664062 -31.585938 9.46875 -42.457031 5.3125 -55.09375 C 1.164062 -67.738281 -1.601562 -80.210938 -3 -92.515625 C -6.695312 -122.898438 -7.796875 -153.484375 -6.296875 -184.265625 C -5.992188 -191.765625 -5.742188 -199.257812 -5.546875 -206.75 C -5.546875 -209.351562 -5.546875 -211.953125 -5.546875 -214.546875 C -5.546875 -219.453125 -7.84375 -221.90625 -12.4375 -221.90625 C -17.34375 -221.90625 -22.191406 -222.003906 -26.984375 -222.203125 C -32.285156 -222.203125 -37.6875 -222.203125 -43.1875 -222.203125 C -43.882812 -222.203125 -44.628906 -222.203125 -45.421875 -222.203125 C -49.222656 -221.796875 -52.773438 -222.445312 -56.078125 -224.15625 C -57.578125 -224.851562 -58.828125 -225.800781 -59.828125 -227 C -60.828125 -228.195312 -61.328125 -229.695312 -61.328125 -231.5 C -61.117188 -233.195312 -60.414062 -234.546875 -59.21875 -235.546875 C -58.019531 -236.546875 -56.519531 -237.046875 -54.71875 -237.046875 C -48.320312 -237.242188 -41.925781 -237.34375 -35.53125 -237.34375 C -31.632812 -237.34375 -27.785156 -237.34375 -23.984375 -237.34375 C -18.992188 -237.34375 -13.945312 -237.59375 -8.84375 -238.09375 C -6.039062 -238.289062 -4.289062 -239.941406 -3.59375 -243.046875 C -3.195312 -246.742188 -2.847656 -250.441406 -2.546875 -254.140625 C -1.742188 -266.234375 -0.894531 -278.328125 0 -290.421875 C 0.695312 -298.816406 1.347656 -307.0625 1.953125 -315.15625 C 1.953125 -315.457031 1.953125 -315.707031 1.953125 -315.90625 C 1.953125 -317.601562 2.101562 -319.253906 2.40625 -320.859375 C 4.101562 -327.859375 8.800781 -331.15625 16.5 -330.75 C 23.09375 -330.25 26.738281 -326.601562 27.4375 -319.8125 C 27.632812 -315.40625 27.632812 -310.90625 27.4375 -306.3125 C 27.4375 -304.507812 27.4375 -302.660156 27.4375 -300.765625 C 27.4375 -300.765625 27.335938 -300.765625 27.140625 -300.765625 C 26.835938 -295.671875 26.585938 -290.570312 26.390625 -285.46875 C 25.484375 -274.070312 24.832031 -262.53125 24.4375 -250.84375 C 24.039062 -244.738281 24.59375 -240.910156 26.09375 -239.359375 C 27.59375 -237.816406 31.640625 -237.144531 38.234375 -237.34375 C 50.628906 -237.144531 62.972656 -237.046875 75.265625 -237.046875 C 84.054688 -237.046875 92.851562 -236.945312 101.65625 -236.75 C 102.550781 -236.75 103.398438 -236.75 104.203125 -236.75 C 106.398438 -236.945312 108.5 -236.867188 110.5 -236.515625 C 112.5 -236.171875 114.5 -235.445312 116.5 -234.34375 C 117.09375 -233.75 117.664062 -233.125 118.21875 -232.46875 C 118.769531 -231.820312 119.195312 -230.945312 119.5 -229.84375 C 119.5 -228.75 119.144531 -227.847656 118.4375 -227.140625 C 117.738281 -226.441406 117.09375 -225.894531 116.5 -225.5 C 112.5 -223.300781 108.300781 -222.398438 103.90625 -222.796875 C 103.300781 -222.796875 102.550781 -222.796875 101.65625 -222.796875 C 88.457031 -222.796875 75.363281 -222.695312 62.375 -222.5 C 55.070312 -222.300781 47.722656 -222.203125 40.328125 -222.203125 C 39.828125 -222.203125 39.378906 -222.203125 38.984375 -222.203125 C 35.679688 -222.203125 32.28125 -222.101562 28.78125 -221.90625 C 25.1875 -221.40625 23.085938 -219.40625 22.484375 -215.90625 C 21.984375 -213.90625 21.734375 -211.957031 21.734375 -210.0625 C 20.941406 -190.664062 20.59375 -171.242188 20.6875 -151.796875 C 20.789062 -132.359375 22.039062 -113.046875 24.4375 -93.859375 C 26.4375 -78.460938 30.484375 -63.71875 36.578125 -49.625 C 39.878906 -41.925781 43.90625 -35.878906 48.65625 -31.484375 C 53.40625 -27.085938 58.726562 -25.238281 64.625 -25.9375 C 75.613281 -27.738281 84.128906 -31.660156 90.171875 -37.703125 C 96.222656 -43.753906 101.347656 -50.28125 105.546875 -57.28125 C 109.546875 -64.070312 113.945312 -69.664062 118.75 -74.0625 Z M 118.75 -74.0625 "/></g></g><g transform="translate(1988.728904, 442.594308)"><g><path d="M 109.15625 -75.109375 C 110.445312 -74.410156 111.039062 -73.238281 110.9375 -71.59375 C 110.84375 -69.945312 110.347656 -68.472656 109.453125 -67.171875 C 102.648438 -57.078125 95.347656 -48.128906 87.546875 -40.328125 C 79.753906 -32.535156 71.1875 -26.710938 61.84375 -22.859375 C 52.5 -19.015625 41.78125 -17.941406 29.6875 -19.640625 C 21.59375 -20.941406 15.492188 -23.691406 11.390625 -27.890625 C 7.296875 -32.085938 4.25 -38.035156 2.25 -45.734375 C -1.050781 -57.828125 -1.800781 -70.269531 0 -83.0625 C 1.5 -90.457031 6.097656 -94.304688 13.796875 -94.609375 C 20.691406 -94.609375 24.4375 -91.507812 25.03125 -85.3125 C 25.238281 -80.21875 25.238281 -75.171875 25.03125 -70.171875 C 25.03125 -69.472656 25.03125 -68.820312 25.03125 -68.21875 C 24.632812 -54.519531 26.859375 -45.144531 31.703125 -40.09375 C 36.554688 -35.050781 42.878906 -33.726562 50.671875 -36.125 C 58.472656 -38.53125 66.769531 -44.03125 75.5625 -52.625 C 76.664062 -53.726562 78.039062 -55.226562 79.6875 -57.125 C 81.332031 -59.019531 83.15625 -60.921875 85.15625 -62.828125 C 87.957031 -65.722656 90.257812 -68.171875 92.0625 -70.171875 C 97.5625 -75.671875 103.257812 -77.316406 109.15625 -75.109375 Z M 11.84375 -116.640625 C 5.75 -117.046875 2.25 -120.347656 1.34375 -126.546875 C 0.644531 -131.335938 1.394531 -135.9375 3.59375 -140.34375 C 5.59375 -144.132812 8.84375 -146.726562 13.34375 -148.125 C 17.84375 -149.53125 22.09375 -149.132812 26.09375 -146.9375 C 27.59375 -146.132812 28.664062 -145.007812 29.3125 -143.5625 C 29.957031 -142.113281 30.179688 -140.9375 29.984375 -140.03125 C 29.785156 -124.238281 23.738281 -116.441406 11.84375 -116.640625 Z M 11.84375 -116.640625 "/></g></g><g transform="translate(2080.639268, 442.594308)"><g><path d="M 132.234375 -75.109375 C 136.035156 -74.410156 138.132812 -72.363281 138.53125 -68.96875 C 138.9375 -65.570312 137.191406 -62.125 133.296875 -58.625 C 129.492188 -55.320312 125.84375 -52.222656 122.34375 -49.328125 C 113.550781 -42.128906 104.109375 -34.429688 94.015625 -26.234375 C 86.109375 -19.835938 78.859375 -12.789062 72.265625 -5.09375 C 67.367188 0.101562 63.722656 6 61.328125 12.59375 C 58.722656 21.1875 54.320312 28.882812 48.125 35.6875 C 44.625 39.6875 40.625 42.132812 36.125 43.03125 C 31.632812 43.925781 26.941406 43.675781 22.046875 42.28125 C 19.640625 41.675781 17.835938 40.425781 16.640625 38.53125 C 15.441406 36.632812 15.191406 34.484375 15.890625 32.078125 C 16.691406 28.378906 18.09375 24.882812 20.09375 21.59375 C 22.988281 17.394531 26.085938 13.296875 29.390625 9.296875 C 29.585938 8.898438 29.882812 8.5 30.28125 8.09375 C 41.78125 -6.195312 42.484375 -20.835938 32.390625 -35.828125 C 29.890625 -39.128906 27.140625 -42.328125 24.140625 -45.421875 C 23.242188 -46.523438 22.242188 -47.628906 21.140625 -48.734375 C 19.335938 -50.929688 17.4375 -53.03125 15.4375 -55.03125 C 11.738281 -58.925781 8.140625 -63.070312 4.640625 -67.46875 C -5.253906 -81.363281 -4.601562 -94.660156 6.59375 -107.359375 C 16.289062 -118.847656 28.382812 -126.789062 42.875 -131.1875 C 51.875 -133.789062 60.570312 -132.992188 68.96875 -128.796875 C 77.0625 -124.390625 80.8125 -117.59375 80.21875 -108.40625 C 79.3125 -102.207031 76.210938 -98.554688 70.921875 -97.453125 C 64.117188 -96.148438 59.269531 -98.25 56.375 -103.75 C 55.476562 -105.945312 54.828125 -107.847656 54.421875 -109.453125 C 54.023438 -111.148438 53.476562 -112.445312 52.78125 -113.34375 C 52.082031 -114.25 50.984375 -114.523438 49.484375 -114.171875 C 47.984375 -113.828125 45.582031 -112.65625 42.28125 -110.65625 C 37.1875 -107.65625 32.789062 -103.707031 29.09375 -98.8125 C 23.09375 -91.613281 22.738281 -83.914062 28.03125 -75.71875 C 29.832031 -73.113281 31.832031 -70.710938 34.03125 -68.515625 C 36.4375 -65.816406 38.738281 -63.171875 40.9375 -60.578125 C 45.332031 -56.171875 49.503906 -51.671875 53.453125 -47.078125 C 57.398438 -42.484375 60.820312 -37.535156 63.71875 -32.234375 C 65.914062 -32.628906 69.765625 -34.703125 75.265625 -38.453125 C 80.765625 -42.203125 86.738281 -46.550781 93.1875 -51.5 C 99.632812 -56.445312 105.503906 -60.921875 110.796875 -64.921875 C 115.191406 -68.421875 118.289062 -70.820312 120.09375 -72.125 C 121.59375 -73.21875 123.441406 -74.039062 125.640625 -74.59375 C 127.835938 -75.144531 130.035156 -75.316406 132.234375 -75.109375 Z M 132.234375 -75.109375 "/></g></g><g transform="translate(2198.938251, 442.594308)"><g><path d="M 118.75 -74.0625 C 120.945312 -75.863281 122.59375 -76.488281 123.6875 -75.9375 C 124.789062 -75.382812 125.566406 -74.285156 126.015625 -72.640625 C 126.460938 -70.992188 126.6875 -69.367188 126.6875 -67.765625 C 126.488281 -64.765625 125.890625 -61.890625 124.890625 -59.140625 C 123.890625 -56.398438 123.191406 -54.578125 122.796875 -53.671875 C 122.492188 -53.472656 122.34375 -53.375 122.34375 -53.375 C 119.34375 -45.675781 114.59375 -38.078125 108.09375 -30.578125 C 101.601562 -23.085938 93.957031 -17.039062 85.15625 -12.4375 C 76.363281 -7.84375 67.019531 -5.847656 57.125 -6.453125 C 43.226562 -8.046875 32.15625 -13.390625 23.90625 -22.484375 C 15.664062 -31.585938 9.46875 -42.457031 5.3125 -55.09375 C 1.164062 -67.738281 -1.601562 -80.210938 -3 -92.515625 C -6.695312 -122.898438 -7.796875 -153.484375 -6.296875 -184.265625 C -5.992188 -191.765625 -5.742188 -199.257812 -5.546875 -206.75 C -5.546875 -209.351562 -5.546875 -211.953125 -5.546875 -214.546875 C -5.546875 -219.453125 -7.84375 -221.90625 -12.4375 -221.90625 C -17.34375 -221.90625 -22.191406 -222.003906 -26.984375 -222.203125 C -32.285156 -222.203125 -37.6875 -222.203125 -43.1875 -222.203125 C -43.882812 -222.203125 -44.628906 -222.203125 -45.421875 -222.203125 C -49.222656 -221.796875 -52.773438 -222.445312 -56.078125 -224.15625 C -57.578125 -224.851562 -58.828125 -225.800781 -59.828125 -227 C -60.828125 -228.195312 -61.328125 -229.695312 -61.328125 -231.5 C -61.117188 -233.195312 -60.414062 -234.546875 -59.21875 -235.546875 C -58.019531 -236.546875 -56.519531 -237.046875 -54.71875 -237.046875 C -48.320312 -237.242188 -41.925781 -237.34375 -35.53125 -237.34375 C -31.632812 -237.34375 -27.785156 -237.34375 -23.984375 -237.34375 C -18.992188 -237.34375 -13.945312 -237.59375 -8.84375 -238.09375 C -6.039062 -238.289062 -4.289062 -239.941406 -3.59375 -243.046875 C -3.195312 -246.742188 -2.847656 -250.441406 -2.546875 -254.140625 C -1.742188 -266.234375 -0.894531 -278.328125 0 -290.421875 C 0.695312 -298.816406 1.347656 -307.0625 1.953125 -315.15625 C 1.953125 -315.457031 1.953125 -315.707031 1.953125 -315.90625 C 1.953125 -317.601562 2.101562 -319.253906 2.40625 -320.859375 C 4.101562 -327.859375 8.800781 -331.15625 16.5 -330.75 C 23.09375 -330.25 26.738281 -326.601562 27.4375 -319.8125 C 27.632812 -315.40625 27.632812 -310.90625 27.4375 -306.3125 C 27.4375 -304.507812 27.4375 -302.660156 27.4375 -300.765625 C 27.4375 -300.765625 27.335938 -300.765625 27.140625 -300.765625 C 26.835938 -295.671875 26.585938 -290.570312 26.390625 -285.46875 C 25.484375 -274.070312 24.832031 -262.53125 24.4375 -250.84375 C 24.039062 -244.738281 24.59375 -240.910156 26.09375 -239.359375 C 27.59375 -237.816406 31.640625 -237.144531 38.234375 -237.34375 C 50.628906 -237.144531 62.972656 -237.046875 75.265625 -237.046875 C 84.054688 -237.046875 92.851562 -236.945312 101.65625 -236.75 C 102.550781 -236.75 103.398438 -236.75 104.203125 -236.75 C 106.398438 -236.945312 108.5 -236.867188 110.5 -236.515625 C 112.5 -236.171875 114.5 -235.445312 116.5 -234.34375 C 117.09375 -233.75 117.664062 -233.125 118.21875 -232.46875 C 118.769531 -231.820312 119.195312 -230.945312 119.5 -229.84375 C 119.5 -228.75 119.144531 -227.847656 118.4375 -227.140625 C 117.738281 -226.441406 117.09375 -225.894531 116.5 -225.5 C 112.5 -223.300781 108.300781 -222.398438 103.90625 -222.796875 C 103.300781 -222.796875 102.550781 -222.796875 101.65625 -222.796875 C 88.457031 -222.796875 75.363281 -222.695312 62.375 -222.5 C 55.070312 -222.300781 47.722656 -222.203125 40.328125 -222.203125 C 39.828125 -222.203125 39.378906 -222.203125 38.984375 -222.203125 C 35.679688 -222.203125 32.28125 -222.101562 28.78125 -221.90625 C 25.1875 -221.40625 23.085938 -219.40625 22.484375 -215.90625 C 21.984375 -213.90625 21.734375 -211.957031 21.734375 -210.0625 C 20.941406 -190.664062 20.59375 -171.242188 20.6875 -151.796875 C 20.789062 -132.359375 22.039062 -113.046875 24.4375 -93.859375 C 26.4375 -78.460938 30.484375 -63.71875 36.578125 -49.625 C 39.878906 -41.925781 43.90625 -35.878906 48.65625 -31.484375 C 53.40625 -27.085938 58.726562 -25.238281 64.625 -25.9375 C 75.613281 -27.738281 84.128906 -31.660156 90.171875 -37.703125 C 96.222656 -43.753906 101.347656 -50.28125 105.546875 -57.28125 C 109.546875 -64.070312 113.945312 -69.664062 118.75 -74.0625 Z M 118.75 -74.0625 "/></g></g><g transform="translate(2308.540983, 442.594308)"><g><path d="M 137.34375 -75.421875 C 138.4375 -75.210938 139.179688 -74.882812 139.578125 -74.4375 C 139.984375 -73.988281 140.4375 -73.113281 140.9375 -71.8125 C 141.332031 -70.519531 140.878906 -68.972656 139.578125 -67.171875 C 138.285156 -65.367188 137.085938 -63.921875 135.984375 -62.828125 C 127.785156 -55.128906 118.191406 -50.53125 107.203125 -49.03125 C 100.898438 -48.125 94.597656 -47.894531 88.296875 -48.34375 C 82.003906 -48.800781 75.8125 -50.328125 69.71875 -52.921875 C 65.320312 -55.117188 61.222656 -54.472656 57.421875 -50.984375 C 49.523438 -43.785156 41.28125 -36.882812 32.6875 -30.28125 C 28.289062 -26.988281 23.664062 -24.238281 18.8125 -22.03125 C 13.96875 -19.832031 8.695312 -18.585938 3 -18.296875 C -13.695312 -18.585938 -20.296875 -26.734375 -16.796875 -42.734375 C -16.597656 -43.429688 -16.347656 -43.976562 -16.046875 -44.375 C -11.242188 -57.375 -4.894531 -69.09375 3 -79.53125 C 10.894531 -89.976562 20.890625 -98.703125 32.984375 -105.703125 C 40.984375 -110.398438 49.582031 -112.195312 58.78125 -111.09375 C 61.175781 -110.59375 63.472656 -109.695312 65.671875 -108.40625 C 68.367188 -107.101562 69.46875 -105.003906 68.96875 -102.109375 C 68.769531 -101.203125 68.34375 -100.425781 67.6875 -99.78125 C 67.039062 -99.132812 66.367188 -98.507812 65.671875 -97.90625 C 65.273438 -97.40625 64.75 -97.054688 64.09375 -96.859375 C 63.445312 -96.660156 62.773438 -96.5625 62.078125 -96.5625 C 55.472656 -96.351562 49.796875 -94.425781 45.046875 -90.78125 C 40.304688 -87.132812 35.984375 -83.015625 32.078125 -78.421875 C 27.679688 -73.515625 23.609375 -68.113281 19.859375 -62.21875 C 16.117188 -56.320312 13.046875 -49.273438 10.640625 -41.078125 C 19.441406 -46.179688 26.34375 -51.226562 31.34375 -56.21875 C 32.4375 -57.320312 33.535156 -58.320312 34.640625 -59.21875 C 35.535156 -60.125 36.429688 -60.925781 37.328125 -61.625 C 41.734375 -65.71875 46.332031 -69.316406 51.125 -72.421875 C 56.625 -75.515625 62.070312 -77.0625 67.46875 -77.0625 C 72.863281 -77.0625 78.113281 -74.863281 83.21875 -70.46875 C 90.207031 -64.269531 97 -61.84375 103.59375 -63.1875 C 110.195312 -64.539062 116.347656 -66.867188 122.046875 -70.171875 C 127.835938 -73.671875 132.9375 -75.421875 137.34375 -75.421875 Z M 137.34375 -75.421875 "/></g></g></g></svg>