<?xml version="1.0" encoding="UTF-8"?>
<!DOCTYPE svg PUBLIC "-//W3C//DTD SVG 1.1//EN" "http://www.w3.org/Graphics/SVG/1.1/DTD/svg11.dtd">
<svg xmlns="http://www.w3.org/2000/svg" version="1.1" width="1900px" height="1250px" style="shape-rendering:geometricPrecision; text-rendering:geometricPrecision; image-rendering:optimizeQuality; fill-rule:evenodd; clip-rule:evenodd" xmlns:xlink="http://www.w3.org/1999/xlink">
<g><path style="opacity:0.938" fill="#fede58" d="M 1154.5,379.5 C 1170.93,378.701 1186.93,380.868 1202.5,386C 1223.19,395.207 1231.36,411.041 1227,433.5C 1221.08,455.334 1211.42,475.334 1198,493.5C 1188.67,504.833 1179.33,516.167 1170,527.5C 1156.47,541.366 1143.3,555.532 1130.5,570C 1131.61,570.638 1132.78,571.138 1134,571.5C 1159.81,569.097 1185.64,568.93 1211.5,571C 1260.14,576.302 1289.97,602.802 1301,650.5C 1302.32,656.782 1303.32,663.115 1304,669.5C 1304.35,671.848 1305.51,673.681 1307.5,675C 1322.61,674.914 1336.94,671.414 1350.5,664.5C 1359.03,651.794 1370.37,642.628 1384.5,637C 1391.08,635.859 1397.42,636.526 1403.5,639C 1405.98,641.284 1406.15,643.784 1404,646.5C 1399.23,648.051 1394.4,649.551 1389.5,651C 1376.57,660.183 1367.24,672.183 1361.5,687C 1361.83,687.5 1362.17,688 1362.5,688.5C 1370.98,681.856 1379.31,675.022 1387.5,668C 1399.35,659.909 1410.35,660.909 1420.5,671C 1430.16,674.299 1439.16,672.799 1447.5,666.5C 1447.83,665.5 1448.17,664.5 1448.5,663.5C 1446.07,648.259 1444.57,632.926 1444,617.5C 1443.92,596.165 1443.92,574.832 1444,553.5C 1443.25,552.874 1442.42,552.374 1441.5,552C 1430.5,551.667 1419.5,551.333 1408.5,551C 1402.04,549.27 1400.38,545.603 1403.5,540C 1416.8,538.834 1430.13,538.168 1443.5,538C 1444.31,537.692 1444.97,537.192 1445.5,536.5C 1447.66,515.89 1449.5,495.223 1451,474.5C 1454.73,466.48 1460.56,464.647 1468.5,469C 1469.72,470.648 1470.55,472.481 1471,474.5C 1470.91,493.021 1470.08,511.521 1468.5,530C 1468.41,532.723 1469.08,535.223 1470.5,537.5C 1492.78,538.824 1515.12,539.657 1537.5,540C 1542.56,542.355 1543.22,545.355 1539.5,549C 1537.61,549.973 1535.61,550.64 1533.5,551C 1512.83,551.333 1492.17,551.667 1471.5,552C 1470.07,552.465 1468.9,553.299 1468,554.5C 1464.5,588.556 1465.17,622.556 1470,656.5C 1472.26,670.615 1477.26,683.615 1485,695.5C 1492.24,703.036 1500.41,704.202 1509.5,699C 1525.82,689.854 1533.98,676.02 1534,657.5C 1534.5,653.98 1536.34,651.48 1539.5,650C 1543.17,649.333 1546.83,649.333 1550.5,650C 1551.33,650.833 1552.17,651.667 1553,652.5C 1554.26,662.427 1554.92,672.427 1555,682.5C 1559,694.743 1566.83,697.909 1578.5,692C 1588.59,685.248 1597.42,677.082 1605,667.5C 1600.91,657.476 1602.24,648.142 1609,639.5C 1619.9,626.633 1633.73,620.133 1650.5,620C 1663.11,621.731 1668.61,628.898 1667,641.5C 1665.3,646.027 1661.97,648.361 1657,648.5C 1655.19,647.922 1653.36,647.422 1651.5,647C 1648.34,643.172 1645.84,639.005 1644,634.5C 1635.8,638.03 1629.47,643.697 1625,651.5C 1624.03,655.782 1624.7,659.782 1627,663.5C 1636.73,674.227 1646.07,685.227 1655,696.5C 1656.89,695.804 1658.73,694.97 1660.5,694C 1672.78,685.385 1684.78,676.385 1696.5,667C 1693.39,652.71 1691.55,638.21 1691,623.5C 1690.65,600.494 1690.65,577.494 1691,554.5C 1690.5,553.333 1689.67,552.5 1688.5,552C 1677.5,551.667 1666.5,551.333 1655.5,551C 1648.87,549.413 1647.2,545.746 1650.5,540C 1663.8,538.834 1677.13,538.168 1690.5,538C 1691,537.5 1691.5,537 1692,536.5C 1694.35,515.585 1696.35,494.585 1698,473.5C 1702.5,466.064 1708.5,464.731 1716,469.5C 1717.12,473.252 1717.95,477.085 1718.5,481C 1717.42,496.643 1716.42,512.31 1715.5,528C 1715.29,531.569 1715.95,534.902 1717.5,538C 1739.5,538.811 1761.5,539.477 1783.5,540C 1788.75,541.594 1789.75,544.594 1786.5,549C 1784.29,550.044 1781.95,550.71 1779.5,551C 1758.83,551.333 1738.17,551.667 1717.5,552C 1715.74,553.008 1714.57,554.508 1714,556.5C 1711.77,585.865 1712.1,615.198 1715,644.5C 1716.34,662.522 1721.67,679.189 1731,694.5C 1738.22,703.127 1746.72,704.627 1756.5,699C 1760.44,697.114 1763.94,694.614 1767,691.5C 1772.91,672.826 1783.41,657.326 1798.5,645C 1807.59,637.639 1817.92,634.972 1829.5,637C 1835.33,639.632 1836,643.299 1831.5,648C 1820.49,649.319 1811.66,654.486 1805,663.5C 1798.2,671.104 1793.53,679.771 1791,689.5C 1799.75,683.419 1807.92,676.586 1815.5,669C 1826.93,660.084 1837.93,660.417 1848.5,670C 1854.92,674.281 1861.59,674.614 1868.5,671C 1874.17,667.663 1880.17,665.163 1886.5,663.5C 1889.46,664.419 1890.63,666.419 1890,669.5C 1885.02,676.912 1878.18,681.745 1869.5,684C 1860.89,685.505 1852.22,685.839 1843.5,685C 1840.36,684.399 1837.36,683.399 1834.5,682C 1832.5,681.333 1830.5,681.333 1828.5,682C 1821.17,688 1813.83,694 1806.5,700C 1799.52,705.244 1791.68,708.078 1783,708.5C 1779.47,708.643 1776.13,707.976 1773,706.5C 1755.07,721.161 1736.57,721.995 1717.5,709C 1710.12,701.744 1704.62,693.244 1701,683.5C 1688.37,693.793 1676.04,704.46 1664,715.5C 1661.33,718.833 1658.67,722.167 1656,725.5C 1652.97,734.557 1648.64,742.89 1643,750.5C 1636.11,756.545 1628.28,758.045 1619.5,755C 1617.7,753.406 1616.7,751.406 1616.5,749C 1618.19,740.973 1622.02,734.14 1628,728.5C 1636.26,717.422 1636.59,706.089 1629,694.5C 1624.32,688.991 1619.49,683.658 1614.5,678.5C 1609.68,683.492 1605.01,688.658 1600.5,694C 1584.23,708.787 1565.9,712.12 1545.5,704C 1542.27,701.273 1539.6,698.106 1537.5,694.5C 1527.28,708.442 1513.61,716.442 1496.5,718.5C 1481.02,717.498 1469.19,710.498 1461,697.5C 1457.71,691.257 1454.71,684.924 1452,678.5C 1440.35,685.112 1427.85,687.278 1414.5,685C 1409.31,682.93 1403.98,681.93 1398.5,682C 1390.12,689.379 1381.46,696.379 1372.5,703C 1361.8,709.566 1350.96,710.066 1340,704.5C 1336.62,697.448 1336.79,690.448 1340.5,683.5C 1340.17,683.167 1339.83,682.833 1339.5,682.5C 1328.47,686.712 1317.31,690.379 1306,693.5C 1300.27,748.464 1276.11,793.298 1233.5,828C 1170.52,877.494 1099.52,894.494 1020.5,879C 987.831,872.92 959.998,858.086 937,834.5C 924.094,815.642 924.427,796.976 938,778.5C 947.507,766.83 959.007,757.663 972.5,751C 984.484,744.841 996.817,739.508 1009.5,735C 1035.9,726.733 1062.57,719.399 1089.5,713C 1090.67,711.833 1091.83,710.667 1093,709.5C 1097.17,637.527 1098.5,565.527 1097,493.5C 1096.52,486.241 1095.69,479.075 1094.5,472C 1094.86,468.831 1096.2,466.164 1098.5,464C 1102.17,463.333 1105.83,463.333 1109.5,464C 1111.38,465.543 1112.88,467.376 1114,469.5C 1115.65,476.74 1116.65,484.073 1117,491.5C 1118.08,509.483 1118.74,527.483 1119,545.5C 1119.19,547.9 1119.69,550.234 1120.5,552.5C 1147.81,527.367 1171.64,499.367 1192,468.5C 1200.57,454.454 1205.74,439.287 1207.5,423C 1207.27,407.433 1199.6,397.766 1184.5,394C 1166.39,390.675 1148.39,391.341 1130.5,396C 1106.86,400.764 1084.86,409.43 1064.5,422C 1059.12,425.712 1054.79,430.379 1051.5,436C 1054.43,439.42 1054.1,442.42 1050.5,445C 1044.64,447.31 1038.97,446.976 1033.5,444C 1030.81,441.347 1029.97,438.18 1031,434.5C 1034.06,428.77 1037.9,423.603 1042.5,419C 1075.76,394.411 1113.1,381.245 1154.5,379.5 Z M 1156.5,581.5 C 1170.5,581.333 1184.5,581.5 1198.5,582C 1234.44,584.305 1259.6,601.805 1274,634.5C 1279.14,647.698 1282.31,661.365 1283.5,675.5C 1283.42,677.299 1282.92,678.966 1282,680.5C 1279.02,681.917 1275.85,682.75 1272.5,683C 1220.33,689.119 1168.5,697.285 1117,707.5C 1115.11,707.223 1113.78,706.223 1113,704.5C 1112.83,701 1112.67,697.5 1112.5,694C 1114.82,658.859 1116.65,623.692 1118,588.5C 1119.56,586.232 1121.72,585.066 1124.5,585C 1135.32,583.886 1145.99,582.719 1156.5,581.5 Z M 1275.5,695.5 C 1277.53,695.338 1279.53,695.505 1281.5,696C 1280.09,730.543 1268.59,761.376 1247,788.5C 1190.39,853.537 1119.22,880.037 1033.5,868C 1012.58,863.473 992.916,855.807 974.5,845C 963.1,837.605 954.6,827.772 949,815.5C 945.949,803.979 948.282,793.646 956,784.5C 964.844,775.666 974.678,768.166 985.5,762C 1018.66,744.777 1053.66,733.944 1090.5,729.5C 1091.19,732.783 1092.19,735.949 1093.5,739C 1106.25,743.522 1112.09,739.022 1111,725.5C 1111.5,723.667 1112.67,722.5 1114.5,722C 1168.06,711.629 1221.72,702.796 1275.5,695.5 Z"/></g>
<g><path style="opacity:0.943" fill="#fede58" d="M 160.5,419.5 C 195.286,418.35 228.952,423.85 261.5,436C 318.406,459.976 337.906,501.476 320,560.5C 308.155,586.676 290.322,607.842 266.5,624C 224.637,651.511 178.637,667.511 128.5,672C 127.209,674.09 127.876,675.424 130.5,676C 187.955,698.061 242.622,725.394 294.5,758C 301.233,762.925 300.9,766.925 293.5,770C 290.793,770.328 288.126,769.995 285.5,769C 250.481,750.156 215.148,731.823 179.5,714C 157.643,704.049 135.476,694.882 113,686.5C 111.674,686.755 110.674,687.422 110,688.5C 108.477,711.153 107.143,733.819 106,756.5C 105.207,770.226 103.873,783.893 102,797.5C 100.567,808.609 94.4006,813.109 83.5,811C 80.6667,809.5 78.5,807.333 77,804.5C 74.3129,792.984 72.6462,781.317 72,769.5C 67.9317,720.909 66.5984,672.243 68,623.5C 73.0579,618.617 78.3913,618.284 84,622.5C 85.2696,634.096 85.9362,645.762 86,657.5C 87,661.5 88,661.5 89,657.5C 91.3185,595.806 90.8185,534.139 87.5,472.5C 87.6495,461.253 92.9828,457.753 103.5,462C 104.333,462.833 105.167,463.667 106,464.5C 106.993,468.442 107.66,472.442 108,476.5C 109.593,504.471 110.427,532.471 110.5,560.5C 109.722,592.165 109.556,623.832 110,655.5C 110.309,656.766 110.809,657.933 111.5,659C 168.485,656.9 219.151,638.234 263.5,603C 283.299,586.866 296.132,566.366 302,541.5C 307.957,508.689 297.79,482.189 271.5,462C 250.402,447.461 227.069,438.461 201.5,435C 151.095,428.614 103.428,437.281 58.5,461C 47.1457,467.606 36.979,475.773 28,485.5C 24.7144,490.69 23.0478,496.357 23,502.5C 22.1667,503.333 21.3333,504.167 20.5,505C 7.8414,508.006 2.67473,503.172 5,490.5C 6.55574,485.72 8.88907,481.387 12,477.5C 28.245,459.958 47.745,447.124 70.5,439C 99.6294,427.81 129.629,421.31 160.5,419.5 Z M 85.5,677.5 C 87.0668,683.253 87.9001,689.253 88,695.5C 88.5,708.5 89,721.5 89.5,734.5C 89.5368,740.554 89.0368,746.554 88,752.5C 86.0381,742.284 85.0381,731.95 85,721.5C 84.3892,706.823 84.5559,692.156 85.5,677.5 Z"/></g>
<g><path style="opacity:0.945" fill="#fede58" d="M 547.5,451.5 C 551.327,451.387 554.827,452.387 558,454.5C 558.667,457.5 558.667,460.5 558,463.5C 548.88,498.981 540.546,534.648 533,570.5C 522.496,629.259 520.829,688.259 528,747.5C 528.77,754.59 530.77,761.257 534,767.5C 535.117,766.051 535.784,764.384 536,762.5C 538.626,730.727 537.626,699.061 533,667.5C 529.434,652.737 534.934,646.904 549.5,650C 553.693,653.531 557.193,657.698 560,662.5C 566.689,671.427 575.522,675.927 586.5,676C 592.058,674.554 597.058,672.054 601.5,668.5C 601.68,658.46 603.18,648.46 606,638.5C 609.377,629.704 615.543,626.871 624.5,630C 625.333,630.833 626.167,631.667 627,632.5C 626.017,640.785 625.184,649.118 624.5,657.5C 629.834,654.166 635.501,651.333 641.5,649C 646.024,648.075 650.191,648.908 654,651.5C 654.704,653.278 655.204,655.112 655.5,657C 651.626,671.662 648.626,686.495 646.5,701.5C 645.811,706.488 647.811,709.488 652.5,710.5C 656.074,710.031 659.408,708.864 662.5,707C 673.544,699.629 683.71,691.129 693,681.5C 701.8,661.034 716.3,646.201 736.5,637C 741.5,636.333 746.5,636.333 751.5,637C 758.592,639.682 759.259,643.348 753.5,648C 744.416,648.755 736.916,652.588 731,659.5C 723.525,667.616 717.691,676.783 713.5,687C 713.833,687.5 714.167,688 714.5,688.5C 722.979,681.856 731.312,675.022 739.5,668C 748.11,661.672 757.11,661.005 766.5,666C 771.218,671.683 777.218,674.016 784.5,673C 789.804,671.792 794.637,669.625 799,666.5C 797.7,653.457 803.2,648.957 815.5,653C 817.602,656.512 819.602,660.012 821.5,663.5C 826.312,659.856 830.979,656.022 835.5,652C 847.181,646.04 858.848,646.04 870.5,652C 876.274,658.385 881.441,665.218 886,672.5C 889.421,676.257 893.588,678.757 898.5,680C 915.803,681.341 931.803,677.341 946.5,668C 950.225,667.24 953.892,667.407 957.5,668.5C 959.953,670.996 960.12,673.662 958,676.5C 933.107,693.192 906.273,697.358 877.5,689C 873.701,686.203 870.201,683.036 867,679.5C 862.876,672.912 858.042,666.912 852.5,661.5C 848.213,663.897 844.38,666.897 841,670.5C 836.754,675.991 832.754,681.658 829,687.5C 822.839,693.52 815.672,695.02 807.5,692C 803.96,689.035 802.293,685.201 802.5,680.5C 794.429,684.147 785.929,685.814 777,685.5C 768.007,685.036 759.173,683.869 750.5,682C 740.549,690.973 729.882,698.973 718.5,706C 709.308,709.783 700.475,709.283 692,704.5C 683.938,711.451 675.105,717.285 665.5,722C 654.226,727.333 642.893,727.666 631.5,723C 626.369,718.331 624.036,712.498 624.5,705.5C 625.391,697.82 626.391,690.154 627.5,682.5C 627.46,680.571 627.127,678.738 626.5,677C 618.061,674.895 611.061,676.895 605.5,683C 597.653,688.296 588.986,691.129 579.5,691.5C 571.818,690.138 564.484,687.972 557.5,685C 556.941,685.725 556.608,686.558 556.5,687.5C 560.171,712.15 560.338,736.817 557,761.5C 556,770.897 551.834,778.397 544.5,784C 533.721,788.513 524.554,786.347 517,777.5C 510.359,763.939 506.359,749.606 505,734.5C 503.233,718.55 502.233,702.55 502,686.5C 491.285,695.703 480.952,705.37 471,715.5C 468.566,718.795 466.899,722.462 466,726.5C 462.786,761.666 456.786,796.332 448,830.5C 441.92,854.499 430.753,875.666 414.5,894C 403.916,901.065 392.582,902.398 380.5,898C 369.906,892.299 364.906,883.299 365.5,871C 367.402,854.892 371.569,839.392 378,824.5C 393.936,788.287 414.269,754.953 439,724.5C 442.711,719.41 445.044,713.743 446,707.5C 446.976,696.821 447.642,686.155 448,675.5C 442.423,679.706 436.59,683.54 430.5,687C 416.037,692.89 404.204,689.724 395,677.5C 389.826,681.503 383.993,684.003 377.5,685C 366.908,686.338 356.574,685.338 346.5,682C 344.5,681.333 342.5,681.333 340.5,682C 334.127,688.042 327.46,693.708 320.5,699C 315.047,703.06 309.047,706.06 302.5,708C 296.245,709.127 290.245,708.46 284.5,706C 279.348,700.694 278.181,694.528 281,687.5C 288.382,665.122 302.548,648.622 323.5,638C 329.431,636.529 335.431,636.196 341.5,637C 348.077,639.23 349.077,642.896 344.5,648C 339.995,648.263 335.661,649.263 331.5,651C 318.908,660.692 309.575,672.859 303.5,687.5C 303.833,687.833 304.167,688.167 304.5,688.5C 313.225,682.947 321.225,676.447 328.5,669C 337.248,661.905 346.582,660.905 356.5,666C 362.504,672.89 369.837,674.89 378.5,672C 382.619,670.441 386.619,668.607 390.5,666.5C 390.835,657.616 392.335,648.949 395,640.5C 398.655,633.93 404.155,631.763 411.5,634C 412.931,634.465 414.097,635.299 415,636.5C 415.151,640.913 414.484,645.246 413,649.5C 411.783,657.478 412.783,665.144 416,672.5C 416.804,673.804 417.971,674.471 419.5,674.5C 426.071,670.766 431.571,665.766 436,659.5C 440.639,651.054 446.139,643.221 452.5,636C 457.984,633.852 463.317,634.185 468.5,637C 469.701,637.903 470.535,639.069 471,640.5C 471.411,656.837 471.244,673.17 470.5,689.5C 471.552,689.649 472.552,689.483 473.5,689C 482.978,681.69 492.311,674.19 501.5,666.5C 504.712,618.802 510.879,571.469 520,524.5C 524.512,501.966 530.845,479.966 539,458.5C 540.851,454.843 543.684,452.51 547.5,451.5 Z M 438.5,754.5 C 439.239,754.369 439.906,754.536 440.5,755C 437.373,785.628 430.54,815.461 420,844.5C 415.915,856.67 410.248,868.003 403,878.5C 400.273,881.731 397.106,884.397 393.5,886.5C 392.808,885.975 392.308,885.308 392,884.5C 391.311,878.118 391.645,871.785 393,865.5C 399.515,831.288 411.181,798.954 428,768.5C 430.779,763.267 434.279,758.6 438.5,754.5 Z"/></g>
<g><path style="opacity:0.924" fill="#fede58" d="M 1543.5,607.5 C 1557.48,606.186 1561.64,612.186 1556,625.5C 1552.34,632.07 1546.84,634.237 1539.5,632C 1537.19,630.891 1535.69,629.057 1535,626.5C 1533.55,618.079 1536.38,611.745 1543.5,607.5 Z"/></g>
</svg>
